<svg width="300" height="128" viewBox="0 0 300 128" fill="none" xmlns="http://www.w3.org/2000/svg"><path d="M44.112 51.304c.96-.832 1.856-1.664 2.752-2.496.896-.896 1.792-1.792 2.624-2.688.832-.96 1.664-1.92 2.432-2.88 1.536-1.984 2.944-4.032 4.16-6.272a42.009 42.009 0 003.072-6.912c.768-2.368 1.344-4.864 1.472-7.424.064-.64.064-1.28.064-1.92 0-.64 0-1.28-.064-1.92-.064-.64-.192-1.28-.32-1.92 0-.192-.064-.32-.064-.512l-.128-.448-.128-.512a1.187 1.187 0 01-.128-.448c-.192-.64-.448-1.216-.704-1.856-.256-.576-.576-1.152-.896-1.728-.128-.128-.192-.256-.256-.384l-.32-.448c-.192-.256-.32-.512-.576-.768l-.256-.384c-.128-.128-.256-.256-.32-.384l-.704-.704c-.448-.512-.96-.96-1.408-1.344l-.384-.32-.384-.256c-.256-.192-.512-.384-.832-.576-1.024-.704-2.112-1.408-3.264-1.984-2.24-1.152-4.672-1.984-7.168-2.496-2.56-.512-5.12-.576-7.68-.32a30.48 30.48 0 00-7.424 1.728c-2.368.896-4.608 2.112-6.72 3.52a32.573 32.573 0 00-5.76 4.928c-1.728 1.856-3.264 3.904-4.48 6.144a28.545 28.545 0 00-2.88 7.104c-.064.32-.128.64-.192.896l-.192.96c0 .32-.064.64-.128.96 0 .32-.064.64-.128.96a36.37 36.37 0 00-.192 3.776c.064 1.28.128 2.56.32 3.84.128 1.216.384 2.496.704 3.712.256 1.216.64 2.432 1.024 3.648.384 1.152.768 2.304 1.216 3.456.896 2.368 1.792 4.608 2.624 6.848l.384.96a746.568 746.568 0 00-3.264 16.448A2293.13 2293.13 0 004.24 99.816c-.832 4.864-1.664 9.664-2.432 14.528-.384 2.432-.768 4.864-1.088 7.296l-.192 1.856c-.064.32-.064.64-.064.96-.064.192-.064.32-.064.512v1.024c0 .128 0 .192.064.32 0 .128 0 .256.064.448.064.064.128.192.192.32.128.128.256.384.64.512s.768.064.896-.064c.256-.064.32-.128.384-.192.192-.192.256-.256.32-.384.064-.064.128-.192.192-.256l.256-.448c.128-.192.192-.32.256-.512l.384-.832c.448-1.216.896-2.368 1.28-3.52.384-1.216.768-2.368 1.152-3.52l2.112-7.104a584.357 584.357 0 003.84-14.208 582.56 582.56 0 003.456-14.336c.256-1.216.576-2.432.832-3.584l.192-.896.192-.96c.064-.32.064-.64.128-.896.064-.192.064-.32.064-.512l.128-.448c.32-2.496.512-4.992.448-7.552a42.976 42.976 0 00-1.024-7.488c-.448-2.048-1.088-4.096-1.792-6.08.768-3.776 1.6-7.552 2.368-11.328 1.024-4.8 2.048-9.6 3.2-14.336.576-2.368 1.152-4.736 1.792-7.104.32-1.152.64-2.368 1.024-3.456.192-.576.384-1.152.64-1.664.064-.256.192-.512.32-.704.192 0 .32-.064.448-.192.384-.384.448-.96.128-1.344-.128-.128-.256-.256-.448-.32a.927.927 0 00-.704-.064c-.192 0-.32.128-.448.128l-.192.192-.192.192c0 .064-.064.064-.064.128-.064.128-.128.192-.192.256-.192.384-.32.64-.448.96a20.753 20.753 0 00-.704 1.792 75.269 75.269 0 00-1.024 3.584c-.704 2.368-1.28 4.736-1.856 7.168a518.377 518.377 0 00-3.264 14.336l-1.728 8.192a87.58 87.58 0 00-1.664-4.352c-.448-1.152-.832-2.304-1.216-3.456a29.49 29.49 0 01-.96-3.392c-.32-1.216-.512-2.368-.704-3.52-.128-1.152-.192-2.368-.256-3.52 0-1.216.064-2.368.192-3.52 0-.32.064-.64.128-.896 0-.32.064-.576.128-.896 0-.256.064-.576.128-.832l.192-.896a27.339 27.339 0 012.624-6.528 30.226 30.226 0 014.16-5.696 30.965 30.965 0 015.376-4.608 27.797 27.797 0 016.272-3.264 27.474 27.474 0 016.848-1.664c2.304-.256 4.672-.128 6.976.32 2.304.384 4.544 1.216 6.656 2.304 1.024.512 2.048 1.088 3.008 1.792.256.192.512.32.704.512l.384.256c.128.128.192.192.32.256.448.384.896.768 1.28 1.152 1.6 1.664 2.816 3.648 3.456 5.824.064.128.128.256.128.448l.128.384.128.448c0 .128 0 .256.064.384.128.576.192 1.152.256 1.728.064.576.064 1.152.064 1.728.064.576 0 1.152 0 1.792-.192 2.304-.704 4.672-1.408 6.912a42.184 42.184 0 01-2.88 6.528c-1.216 2.048-2.496 4.096-4.032 5.952a30.866 30.866 0 01-2.304 2.752c-.832.896-1.664 1.728-2.496 2.56a92.293 92.293 0 01-2.688 2.432 108.88 108.88 0 01-2.816 2.304c-1.92 1.472-3.904 2.88-5.952 4.16-1.024.64-2.048 1.216-3.072 1.792l-1.856.384c-1.216.32-2.432.576-3.648.96-.64.192-1.216.448-1.856.64-.256.128-.576.256-.896.448l-.448.192c-.192.128-.32.192-.512.32l-.256.256c-.064.064-.128.128-.192.128-.064.064-.064.192-.128.256-.064.128-.128.192-.192.384s-.064.448 0 .704c0 .256.128.448.256.576.128.128.256.192.32.256l.32.128c.064.064.064.064.192.064.064.064.256.064.32.064h.832c.384-.064.704-.192 1.024-.256.32-.128.64-.192.96-.32a20.753 20.753 0 001.792-.704l1.664-.768a124.139 124.139 0 002.944-1.536c1.664-.32 3.392-.512 5.056-.64 2.432-.192 4.8-.192 7.168.064 1.152.128 2.304.32 3.456.576 1.152.32 2.24.704 3.264 1.152.512.256 1.024.512 1.472.832.512.32.896.64 1.344 1.024.384.32.832.704 1.152 1.152.32.448.64.896.896 1.344.32.512.512 1.024.704 1.536.128.256.192.512.256.768.064.192.128.32.128.448l.128.448c.32 1.088.512 2.24.64 3.456.32 2.304.256 4.672-.064 7.04-.128 1.152-.384 2.304-.64 3.456-.256 1.152-.64 2.304-1.024 3.456-.768 2.24-1.792 4.416-2.944 6.464-1.152 2.112-2.496 4.096-3.904 6.016-1.472 1.92-3.072 3.712-4.736 5.44-1.728 1.664-3.52 3.264-5.44 4.672a49.657 49.657 0 01-3.008 2.048c-.96.64-2.048 1.216-3.072 1.792-2.112 1.088-4.352 2.048-6.592 2.688a53.546 53.546 0 01-7.04 1.664c-.704.128-1.408.192-2.112.256.192-.256.384-.512.448-.832.192-.576-.064-1.152-.64-1.344-.512-.256-1.152.064-1.344.576l-.064.064c0 .064 0 .128-.064.192s-.192.128-.256.256l-.384.192c-.128.064-.32.128-.448.128a6.695 6.695 0 01-1.088.256h-.576l-.256.064h-.32c-.384 0-.704.128-.896.448-.32.512-.192 1.216.32 1.536.128.064.192.064.192.064l.192.128c.064 0 .192.064.256.064l.32.128.256.064c.192.064.32.064.512.064.064.064.192.064.256.064l.256.064h.512l.512.064h.96c1.28 0 2.56-.192 3.776-.32 2.496-.384 4.928-1.024 7.36-1.728a40.8 40.8 0 006.976-2.816 43.34 43.34 0 003.264-1.92 26.059 26.059 0 003.072-2.112 55.352 55.352 0 0010.688-10.496 50.717 50.717 0 004.16-6.272c1.152-2.24 2.24-4.48 3.072-6.912a58.588 58.588 0 001.088-3.584c.256-1.28.512-2.496.704-3.776.32-2.496.384-5.056.064-7.616-.192-1.28-.384-2.496-.768-3.776l-.128-.448c0-.128-.064-.32-.128-.448-.064-.32-.192-.576-.256-.96a23.382 23.382 0 00-.896-1.792 9.663 9.663 0 00-1.152-1.664c-.384-.576-.896-1.024-1.408-1.472a15.028 15.028 0 00-1.6-1.216l-1.728-.96c-1.216-.512-2.432-.96-3.648-1.28-1.28-.32-2.56-.512-3.776-.64a42.573 42.573 0 00-7.552-.064h-.192c1.728-1.088 3.392-2.304 4.992-3.52a93.74 93.74 0 002.88-2.368zm-20.48-36.288c-.064 0-.064-.064-.128-.128l.128.128zM14.16 58.472c.128.64.32 1.28.448 1.92.576 2.368.896 4.672.96 7.104.064 2.368-.064 4.736-.448 7.104l-.064.448c0 .128-.064.256-.064.448l-.192.832-.128.896-.192.896a72.393 72.393 0 01-.832 3.584c-1.088 4.8-2.24 9.536-3.456 14.272a353.667 353.667 0 01-3.776 14.144c-.704 2.368-1.344 4.736-2.112 7.04-.32 1.152-.704 2.304-1.088 3.456l-.192.576.96-6.528c.768-4.8 1.6-9.664 2.432-14.464a1525.172 1525.172 0 015.248-28.928l2.496-12.8zm66.572 17.344c-.32-.448-1.024-.576-1.536-.192l-.256.192h-.064v.064l-.064.064c-.064 0-.128.064-.192.064 0 .064-.064.064-.128.128-.256.128-.512.256-.768.32a8.376 8.376 0 01-1.792.576l-1.792.384h-.256v-.576a7.372 7.372 0 00-.384-1.344 4.484 4.484 0 00-.512-.64c-.192-.192-.448-.448-.768-.576-.128-.064-.32-.064-.512-.128h-.192c-.128 0-.192-.064-.256 0h-.448c-.064.064-.128.064-.192.064-.064.064-.192.064-.256.064-.256.128-.512.32-.768.512 0 0 0 .064-.064.064.128-.32.128-.64 0-.96a1.13 1.13 0 00-1.472-.512 5.527 5.527 0 00-1.024.64 5.93 5.93 0 00-.896.896c-.256.32-.512.704-.704 1.088-.192.32-.32.768-.384 1.152-.064.192-.064.384-.064.64-.064.192-.064.448-.064.64s.064.448.064.64l.192.64c.128.384.384.832.64 1.152.256.384.576.704.96.96.256.128.448.256.704.32.128.064.192.064.384.128 0 0 .128 0 .192.064h.128c.512.064.96 0 1.344-.064.832-.192 1.536-.576 2.24-1.024.32-.192.576-.448.896-.768.128-.128.256-.32.384-.512l.32-.384c.32-.064.64-.064 1.024-.128.32-.064.704-.064 1.024-.128.32-.064.704-.128 1.024-.256.704-.128 1.344-.32 2.048-.576.32-.128.704-.256 1.024-.448.128 0 .192-.064.256-.128.128-.064.192-.064.32-.192l.128-.064.128-.128.064-.064h.064l.064-.064c0-.064.064-.128.128-.192.384-.384.384-.96.064-1.408zm-10.048 3.52c-.064.064-.128.128-.256.128-.384.32-.896.576-1.344.704-.256.064-.448.064-.64 0h-.192c-.128-.064-.192-.064-.256-.128-.128-.128-.32-.256-.384-.448-.128-.192-.256-.384-.32-.576l-.128-.704c0-.064 0-.192.064-.32 0-.128 0-.256.064-.384 0-.192.128-.448.192-.64.128-.256.256-.448.384-.64.192-.192.32-.384.512-.512.192-.192.448-.32.64-.448.064 0 .128-.064.192-.064a.485.485 0 00-.128.256c-.128.32-.192.576-.192.896-.064.256 0 .512.064.768.064.512.32.96.704 1.408.128.192.384.384.64.512.064 0 .064.064.128.064h.064c.064.064.128.064.192.064v.064zm.896-1.984h-.128l-.064-.064h-.064s-.064-.064-.064-.128a.489.489 0 01-.128-.32c-.064-.128-.064-.192 0-.256v-.064c0-.064.064-.064.064-.064h.128c.064 0 .064.064.128.128.064.128.128.32.128.576 0 .064.064.128.064.256l-.064-.064zm31.676-1.152c-.32-.512-1.024-.64-1.536-.32l-.256.128-.256.192-.448.256-1.024.576a30.42 30.42 0 01-1.984 1.088 34.378 34.378 0 01-4.16 1.856c-.704.256-1.408.448-2.048.576-.192 0-.384 0-.512.064h-.512c-.32 0-.64 0-.896-.064l-.32-.128c-.064 0-.128-.064-.192-.128 0-.064 0-.064-.064-.064v-.128c0-.064 0-.256.064-.384 0-.192 0-.32.064-.512.064-.384.128-.704.256-1.088l.128-.576c0-.128.064-.192.064-.32v-.256h.064v-.192c0-.064 0-.128-.064-.128v-.192c-.064-.192-.128-.384-.256-.512-.128-.192-.256-.32-.384-.384s-.256-.128-.32-.192c-.064 0-.128-.064-.192-.064h-.128c-.192-.064-.32-.064-.512-.064-.128-.064-.256 0-.384 0-.512 0-.96.128-1.408.256h-.064c-.064.064-.064.064-.128.064h-.256l-.128.064h-.256c-.32 0-.64-.064-.96-.128-.32 0-.704-.128-1.024-.192h-.064a.883.883 0 01.192-.256l.064-.064v-.064h.064c0-.064.064-.128.128-.192.064-.192.192-.32.256-.576v-.256l.064-.128v-.256c-.064-.192-.064-.448-.192-.64-.064-.256-.192-.448-.384-.64-.128-.128-.32-.256-.512-.384l-.576-.192c-.128 0-.32-.064-.512-.064-.128 0-.32.064-.512.064-.064 0-.192.064-.32.064 0 .064-.064.064-.128.064l-.128.128c-.064 0-.128.064-.192.064-.064.064-.064.064-.128.064l-.064.064c-.128.128-.256.256-.384.32a4.08 4.08 0 00-.512.896c-.128.32-.128.704-.128 1.024.064.384.128.704.32 1.024v.064l-.384.256-.064.064c-.448.32-.576 1.024-.192 1.536.32.512 1.024.576 1.536.256l.512-.384.384-.256c.448.192.832.32 1.28.448.384.128.832.256 1.216.32.448.064.896.128 1.344.128h.704l.192-.064h.192l.192-.064h.128l.064-.064c.192 0 .384-.064.512-.128v.064l-.256 1.216a2.274 2.274 0 00-.128.64c0 .256-.064.512-.064.768 0 .128.064.256.064.448v.192l.064.064V81c.064.064.064.128.128.192v.064l.064.064c0 .064 0 .064.064.128l.064.128s0 .064.064.064c.064.128.192.256.32.384.256.192.512.384.832.512.256.128.512.192.768.256.512.064.96.064 1.472.064.064 0 .192-.064.32-.064s.192 0 .32-.064l.64-.064c.064-.064.192-.064.32-.064l.256-.128c.256 0 .448-.064.64-.128l.576-.192.576-.192a45.918 45.918 0 004.416-1.92c.704-.32 1.408-.704 2.112-1.088l1.024-.576.512-.256.256-.192.256-.128h.064c.512-.384.704-1.088.32-1.6zm17.694-.576c-.512-.384-1.216-.256-1.6.256l-.128.192c-.064 0-.064.064-.128.128-.064.128-.192.192-.32.32a3.034 3.034 0 01-.64.64 3.034 3.034 0 01-.64.64c-.256.256-.448.448-.704.64-.448.384-.96.768-1.472 1.152-.192.192-.448.32-.704.512-.256.128-.512.256-.704.384-.064 0-.128 0-.192.064h-.384c0-.064-.064-.064-.064-.064 0-.064-.064-.064-.064-.128-.064-.064-.064-.064-.064-.128l-.064-.064v-.256c-.064-.064-.064-.128-.064-.256-.064-.128-.064-.32-.128-.512-.064-.384-.192-.704-.32-1.088a6.058 6.058 0 00-.576-1.088 3.15 3.15 0 00-.896-.96c-.384-.32-.896-.512-1.344-.576-.128-.064-.256-.064-.384-.064h-.896c-.064.064-.128.064-.192.064a2.366 2.366 0 00-.704.32c-.256.064-.384.192-.576.32-.32.256-.576.576-.832.832s-.512.512-.704.768a34.642 34.642 0 01-1.152 1.6l-.576.64-.064.064h-.064c0 .064 0 .064-.064.064 0 .064 0 .064-.064.064l-.256.192h-.064v-.192c0-.256.064-.576.064-.896l.384-1.792c.064-.32.128-.576.256-.832.064-.128.064-.256.128-.384s.128-.256.128-.32c.064 0 .064-.064.064-.064.32-.576.128-1.216-.448-1.536-.576-.32-1.216-.128-1.536.448-.128.256-.192.448-.256.64l-.192.512a7.96 7.96 0 00-.256 1.024c-.192.704-.256 1.344-.384 2.048 0 .32-.064.704-.064 1.024v1.152c0 .128 0 .256.064.448 0 .064.064.064.064.128s.064.064.064.128c0 0 0 .064.064.128s.064.064.064.128c.064 0 .064 0 .064.064.064 0 .064.064.064.064.064 0 .064 0 .064.064h.064l.064.064s.064 0 .064.064h.128l.064.064h.128s0 .064.064.064h.704a2.3 2.3 0 00.704-.128c.192-.064.384-.128.576-.256.192-.064.384-.192.576-.32.064-.064.128-.064.128-.128.064 0 .128-.064.128-.064l.128-.128.128-.064.192-.256.192-.192.384-.384c.448-.512.832-1.024 1.28-1.472.192-.256.384-.512.576-.704.192-.192.384-.384.576-.512l.256-.192c.064 0 .128-.064.192-.064h.576c.064 0 .064.064.128.064s.128.064.192.128c.128.064.256.192.384.384.256.384.512.896.64 1.408.064.128.064.32.064.448.064.064.064.128.064.256.064.064.064.192.064.32l.064.128c0 .064.064.128.064.192.064.064.064.192.128.32.128.192.256.448.512.64.192.192.384.384.704.512.256.128.512.192.768.256h.64c.064-.064.128-.064.192-.064h.064l.128-.064h.128c.128-.064.256-.064.32-.128.384-.128.704-.32 1.024-.512.32-.128.64-.32.896-.512a16.385 16.385 0 001.664-1.28c.512-.448 1.024-.896 1.472-1.408.256-.192.512-.448.704-.704.128-.128.256-.32.384-.448l.192-.192a.485.485 0 00.128-.256c.384-.512.256-1.152-.192-1.536zm39.755.448a1.058 1.058 0 00-1.536-.192h-.064c-.576.448-1.28.896-1.984 1.28s-1.408.768-2.176 1.088c-.704.32-1.472.576-2.24.768-.768.256-1.536.384-2.304.512-.384 0-.768.064-1.152.064-.384 0-.704-.064-1.024-.128l-.064-.064h-.128c-.064 0-.064-.064-.064-.064h-.064l-.064-.064h-.128l-.064-.064s0-.064-.064-.192c0-.064-.064-.192-.064-.384v-.96l.192-1.152c.128-.384.192-.768.32-1.152l.064-.32.064-.192v-.192l.064-.064v-.32c.192.192-.384-1.344-1.6-.896-.448.192-.384.256-.448.32l-.064.064-.064.064v.064c-.064.064-.064.064-.064.128-.064.064-.064.128-.064.128l-.128.192v.064l-.128.192c-.128-.32-.448-.512-.832-.576-.448-.064-.896-.128-1.408-.128-.448 0-.96.064-1.472.128-.512.128-1.024.256-1.472.448l-.192.128-.192.064c-.064.064-.192.128-.32.256-.192.128-.448.256-.64.448-.384.384-.704.768-.96 1.28-.192.192-.256.448-.384.704-.064.128-.128.256-.128.384 0 .064 0 .064-.064.128v.064l-.064.192c0 .256-.064.512-.064.832 0 .256 0 .576.064.896.064.32.192.64.448.96.064.192.192.32.32.448l.512.32c.32.192.64.256.96.32.256.064.576.064.832 0 .32 0 .576-.064.832-.128.128-.064.256-.064.384-.128s.256-.064.384-.128a6.31 6.31 0 001.28-.832.883.883 0 00.256-.192c.128-.064.192-.192.32-.256.128-.128.32-.32.512-.448.256-.256.448-.512.704-.768l.192.768c.128.32.32.64.576.96.128.128.32.256.512.32.064.064.128.128.192.128l.064.064c.064 0 .064 0 .128.064.256.064.512.192.768.192a6.312 6.312 0 001.536.192c.448 0 .896-.064 1.344-.128.96-.064 1.792-.32 2.688-.512.832-.256 1.664-.512 2.496-.896.832-.32 1.6-.64 2.368-1.088a7.296 7.296 0 001.216-.64c.192-.128.384-.256.512-.384.192-.064.384-.192.576-.32l.064-.064c.512-.384.576-1.088.192-1.6zm-16.192.32c-.448.64-.96 1.28-1.536 1.856-.256.256-.512.512-.832.704a3.254 3.254 0 01-.832.576c-.064.064-.128.064-.192.064-.128.064-.192.064-.256.128-.128 0-.256.064-.384.064h-.384c-.128-.064-.192-.064-.256-.128-.064 0-.064 0-.064-.064-.064-.064-.064-.128-.064-.192-.064-.128-.064-.192 0-.384v-.32s0-.064.064-.128v-.192l.128-.192c0-.128.128-.256.192-.384.128-.32.32-.512.576-.768.128-.064.256-.192.384-.256l.192-.128.064-.064.128-.064a4.21 4.21 0 01.96-.256c.32-.064.64-.128 1.024-.128.32 0 .704.064 1.088.064v.064h.128c0 .064-.064.064-.128.128zm33.812-.768c-.512-.384-1.216-.256-1.6.256l-.128.192c-.064 0-.064.064-.128.128-.064.128-.192.192-.32.32a3.034 3.034 0 01-.64.64 3.034 3.034 0 01-.64.64c-.256.256-.448.448-.704.64-.448.384-.96.768-1.472 1.152-.192.192-.448.32-.704.512-.256.128-.512.256-.704.384-.064 0-.128 0-.192.064h-.384c0-.064-.064-.064-.064-.064 0-.064-.064-.064-.064-.128-.064-.064-.064-.064-.064-.128l-.064-.064v-.256c-.064-.064-.064-.128-.064-.256-.064-.128-.064-.32-.128-.512-.064-.384-.192-.704-.32-1.088a6.058 6.058 0 00-.576-1.088 3.15 3.15 0 00-.896-.96c-.384-.32-.896-.512-1.344-.576-.128-.064-.256-.064-.384-.064h-.896c-.064.064-.128.064-.192.064a2.366 2.366 0 00-.704.32c-.256.064-.384.192-.576.32-.32.256-.576.576-.832.832s-.512.512-.704.768a34.642 34.642 0 01-1.152 1.6l-.576.64-.064.064h-.064c0 .064 0 .064-.064.064 0 .064 0 .064-.064.064l-.256.192h-.064v-.192c0-.256.064-.576.064-.896l.384-1.792c.064-.32.128-.576.256-.832.064-.128.064-.256.128-.384s.128-.256.128-.32c.064 0 .064-.064.064-.064.32-.576.128-1.216-.448-1.536-.576-.32-1.216-.128-1.536.448-.128.256-.192.448-.256.64l-.192.512a7.96 7.96 0 00-.256 1.024c-.192.704-.256 1.344-.384 2.048 0 .32-.064.704-.064 1.024v1.152c0 .128 0 .256.064.448 0 .064.064.064.064.128s.064.064.064.128c0 0 0 .064.064.128s.064.064.064.128c.064 0 .064 0 .064.064.064 0 .064.064.064.064.064 0 .064 0 .064.064h.064l.064.064s.064 0 .064.064h.128l.064.064h.128s0 .064.064.064h.704a2.3 2.3 0 00.704-.128c.192-.064.384-.128.576-.256.192-.064.384-.192.576-.32.064-.064.128-.064.128-.128.064 0 .128-.064.128-.064l.128-.128.128-.064.192-.256.192-.192.384-.384c.448-.512.832-1.024 1.28-1.472.192-.256.384-.512.576-.704.192-.192.384-.384.576-.512l.256-.192c.064 0 .128-.064.192-.064h.576c.064 0 .064.064.128.064s.128.064.192.128c.128.064.256.192.384.384.256.384.512.896.64 1.408.064.128.064.32.064.448.064.064.064.128.064.256.064.064.064.192.064.32l.064.128c0 .064.064.128.064.192.064.064.064.192.128.32.128.192.256.448.512.64.192.192.384.384.704.512.256.128.512.192.768.256h.64c.064-.064.128-.064.192-.064h.064l.128-.064h.128c.128-.064.256-.064.32-.128.384-.128.704-.32 1.024-.512.32-.128.64-.32.896-.512a16.385 16.385 0 001.664-1.28c.512-.448 1.024-.896 1.472-1.408.256-.192.512-.448.704-.704.128-.128.256-.32.384-.448l.192-.192a.485.485 0 00.128-.256c.384-.512.256-1.152-.192-1.536zm17.753-46.144c0-.384 0-.768-.064-1.152-.064-.192-.064-.384-.128-.64l-.192-.64c0-.128-.064-.256-.128-.384a1.339 1.339 0 00-.256-.384c-.128-.128-.256-.32-.448-.448a.581.581 0 00-.448-.192 1.187 1.187 0 00-.448-.128c-.192 0-.576.128-.64.192a1.194 1.194 0 00-.256.192c-.064.064-.128.128-.128.192-.064 0-.064.064-.064.064-.064.128-.128.192-.128.256-.064.192-.128.256-.128.384l-.192.576c-.064.384-.192.768-.256 1.088-.064.384-.128.768-.192 1.088l-.384 2.176c-.256 1.472-.512 2.88-.704 4.288-.256 1.472-.448 2.88-.64 4.352-.832 5.696-1.536 11.456-2.304 17.216l-.768 5.824c-.896 2.688-1.664 5.44-2.496 8.128v.064h-.192c-.128 0-.256 0-.384.064h-.32c-.384.128-.768.256-1.152.32-.768.256-1.472.576-2.176.96a9.19 9.19 0 00-1.984 1.216l-.96.768c-.32.32-.576.64-.832 1.024-.064.064-.128.192-.192.256l-.192.32c-.064.192-.192.448-.256.64l-.192.704c0 .256-.064.512 0 .768 0 .32.064.576.128.832s.192.512.32.768c.192.256.32.448.576.64.192.192.384.32.64.448s.512.256.704.32c.256.064.512.128.768.128s.512.064.704 0h.384c.128-.064.192-.064.32-.064.448-.128.896-.256 1.344-.512a4.205 4.205 0 001.088-.768c.32-.32.64-.64.896-.96.256-.32.448-.64.64-1.024a10.2 10.2 0 001.024-2.048l.256-.64-.96 7.68-.512 4.352-.128 1.088c0 .32-.064.704-.064 1.088l-.064.256v.448c0-.064.128.448.128.384 0 .064 0 .064.064.128 0 .064 0 .128.064.128l.128.192.192.192.384.256c.064 0 .192 0 .256.064h.704c.064-.064.128-.064.192-.064.064-.064.128-.064.192-.064 0-.064.064-.064.064-.064.064 0 .064-.064.064-.064.064 0 .128-.064.192-.064 0-.064.064-.064.064-.128a.138.138 0 00.128-.128c.256-.256.384-.512.512-.768.256-.64 0-1.28-.576-1.536-.128 0-.256-.064-.384-.064l.128-1.088c.128-1.408.256-2.88.448-4.288.32-2.88.64-5.76 1.024-8.64.32-2.88.704-5.696 1.024-8.576.128-.768.192-1.536.32-2.304 0-.064.064-.192.128-.32.448-1.344.832-2.752 1.28-4.16.448-1.408.832-2.816 1.216-4.16a206.394 206.394 0 002.112-8.512c.64-2.88 1.152-5.76 1.536-8.64.256-1.472.384-2.88.512-4.352.064-.768.064-1.472.128-2.24 0-.768 0-1.536-.064-2.304zm-2.304 4.352c-.128 1.408-.256 2.816-.448 4.224a94.763 94.763 0 01-1.536 8.512l-.576 2.624c.448-2.816.832-5.696 1.28-8.512.448-2.88.832-5.76 1.344-8.576 0 .576-.064 1.152-.064 1.728zm-10.432 41.664c-.32.64-.576 1.28-.896 1.856l-.512.768a3.034 3.034 0 01-.64.64c-.192.192-.384.32-.64.448-.192.128-.448.192-.704.256-.256.064-.512.064-.768.064-.064 0-.192 0-.32-.064a.485.485 0 01-.256-.128.655.655 0 01-.384-.32c-.064-.064-.064-.128-.064-.192-.064-.128-.064-.192-.064-.32v-.256c0-.128.064-.256.064-.384.064-.064.128-.192.192-.32 0-.064.064-.128.064-.192l.128-.128c.128-.256.32-.448.576-.64.192-.256.448-.448.704-.64.512-.384 1.088-.704 1.664-1.024.64-.32 1.216-.576 1.856-.768l.576-.192-.576 1.536zm55.039 1.216c-.192-.576-.768-.96-1.344-.832l-6.784 1.536c-1.152.256-2.304.576-3.456.832a8.058 8.058 0 01-.64.192l.384-.896c.128-.384.192-.704.192-1.152v-.64a3.12 3.12 0 00-.256-.704 2.299 2.299 0 00-.448-.64c-.192-.192-.384-.384-.64-.448-.384-.256-.832-.32-1.216-.384h-1.024c-.32.064-.64.064-.96.128-.64.064-1.28.256-1.856.448-.64.256-1.216.512-1.792.832-.832.448-1.6 1.088-2.24 1.792.256-1.984.512-3.968.832-5.888l.96-6.912c.704-4.544 1.344-9.152 2.112-13.696l.576-3.456.576-3.392c.192-1.152.384-2.304.64-3.456l.32-1.664.32-1.728c.192-1.152.448-2.24.64-3.392l.384-1.728.32-1.664.128-.384c.064 0 .192-.064.32-.064.576-.192.896-.832.704-1.408 0-.064-.064-.192-.064-.256v-.384c-.064-.256-.064-.512-.064-.832v-1.024c-.064 0-.064-.064-.064-.128s0-.064-.064-.192c-.128.064.384-.576-1.28-.704-.896.384-.64.512-.768.576 0 .064-.064.064-.064.128s0 .064-.064.128v.064c0 .064 0 .128-.064.128v.256l-.064.192-.384 1.728-.32 1.728-.192.832-.128.896-.384 1.664c-.192 1.152-.448 2.304-.64 3.456l-.32 1.728-.32 1.664-.576 3.456c-.192 1.152-.384 2.304-.64 3.456l-.576 3.392a882.016 882.016 0 01-2.24 13.76c-.704 4.608-1.344 9.216-1.984 13.76l-.256 1.728c-.064.576-.128 1.152-.256 1.728 0 .192-.064.384-.064.64a3.7 3.7 0 00-.32.896c-.128.32-.192.64-.256.96-.064.128-.064.32-.128.512v.768c.064.064.064.192.192.448.064.32 1.28.64 1.472.32.32-.192.32-.256.384-.32s.064-.128.064-.128c.064-.064.064-.128.128-.128 0-.128.064-.128.064-.192 0-.128.064-.192.064-.32.064-.128.128-.32.128-.448.128-.32.192-.576.192-.896.128-.384.192-.704.256-1.088 0-.064.064-.192.128-.32.448-.96.96-1.92 1.664-2.688.64-.832 1.408-1.536 2.304-2.048.896-.512 1.856-.832 2.88-1.024.256 0 .512-.064.768-.064h.704c.192 0 .384.064.448.128.064 0 .064 0 .064.064h.064c0 .064.064.192.064.384-.064.128-.064.32-.128.576-.128.384-.384.832-.64 1.28-.32.512-.704.96-1.088 1.408-.896.32-1.792.704-2.624 1.024l-.832.384-.384.128-.192.128h-.064l-.128.064c-.064 0-.064.064-.128.064a1.339 1.339 0 00-.384.256c-.128.128-.256.256-.32.448-.064.064-.128.192-.192.32s-.064.256-.064.448c0 .128 0 .32.064.512.064.128.192.32.32.448.064.128.192.192.32.256s.256.128.32.192c.256.064.384.064.576.064.32 0 .576-.064.768-.128l.064-.064h.064l.128-.064c.064 0 .192-.064.256-.064l.448-.192c.256-.192.576-.32.832-.512a9.374 9.374 0 001.536-1.088c.256-.192.448-.384.704-.64.128 0 .192-.064.32-.128 1.088-.384 2.112-.704 3.264-.96a50.55 50.55 0 013.328-.832c2.24-.512 4.48-1.088 6.784-1.6.576-.128.96-.704.832-1.344zM223.021 25v.064c-.32-.064-.128-.064 0-.064zm-3.2 57.984v-.064h.064l-.064.064zm41.435-6.784c-.32-.512-1.024-.64-1.536-.32l-.256.128-.256.192-.448.256-1.024.576a30.42 30.42 0 01-1.984 1.088 34.378 34.378 0 01-4.16 1.856c-.704.256-1.408.448-2.048.576-.192 0-.384 0-.512.064h-.512c-.32 0-.64 0-.896-.064l-.32-.128c-.064 0-.128-.064-.192-.128 0-.064 0-.064-.064-.064v-.128c0-.064 0-.256.064-.384 0-.192 0-.32.064-.512.064-.384.128-.704.256-1.088l.128-.576c0-.128.064-.192.064-.32v-.256h.064v-.192c0-.064 0-.128-.064-.128v-.192c-.064-.192-.128-.384-.256-.512-.128-.192-.256-.32-.384-.384s-.256-.128-.32-.192c-.064 0-.128-.064-.192-.064h-.128c-.192-.064-.32-.064-.512-.064-.128-.064-.256 0-.384 0-.512 0-.96.128-1.408.256h-.064c-.064.064-.064.064-.128.064h-.256l-.128.064h-.256c-.32 0-.64-.064-.96-.128-.32 0-.704-.128-1.024-.192h-.064c.064-.128.128-.192.192-.256l.064-.064v-.064h.064c0-.064.064-.128.128-.192.064-.192.192-.32.256-.576v-.256l.064-.128v-.256c-.064-.192-.064-.448-.192-.64-.064-.256-.192-.448-.384-.64-.128-.128-.32-.256-.512-.384l-.576-.192c-.128 0-.32-.064-.512-.064-.128 0-.32.064-.512.064-.064 0-.192.064-.32.064 0 .064-.064.064-.128.064l-.128.128c-.064 0-.128.064-.192.064-.064.064-.064.064-.128.064l-.064.064c-.128.128-.256.256-.384.32a4.08 4.08 0 00-.512.896c-.128.32-.128.704-.128 1.024.064.384.128.704.32 1.024v.064l-.384.256-.064.064c-.448.32-.576 1.024-.192 1.536.32.512 1.024.576 1.536.256l.512-.384.384-.256c.448.192.832.32 1.28.448.384.128.832.256 1.216.32.448.064.896.128 1.344.128h.704l.192-.064h.192l.192-.064h.128l.064-.064c.192 0 .384-.064.512-.128v.064l-.256 1.216a2.274 2.274 0 00-.128.64c0 .256-.064.512-.064.768 0 .128.064.256.064.448v.192l.064.064V81c.064.064.064.128.128.192v.064l.064.064c0 .064 0 .064.064.128l.064.128s0 .064.064.064c.064.128.192.256.32.384.256.192.512.384.832.512.256.128.512.192.768.256.512.064.96.064 1.472.064.064 0 .192-.064.32-.064s.192 0 .32-.064l.64-.064c.064-.064.192-.064.32-.064l.256-.128c.256 0 .448-.064.64-.128l.576-.192.576-.192a45.918 45.918 0 004.416-1.92c.704-.32 1.408-.704 2.112-1.088l1.024-.576.512-.256.256-.192.256-.128h.064c.512-.384.704-1.088.32-1.6zm20.83-.128c-.384-.512-1.088-.576-1.6-.192 0 .064-.064.064-.128.128l-.128.064c-.064.064-.128.128-.256.192-.128.128-.32.256-.512.384l-1.088.704c-.704.384-1.472.832-2.24 1.216-1.6.704-3.2 1.28-4.864 1.664-.832.192-1.664.32-2.496.384-.896.064-1.728.064-2.56 0a10.13 10.13 0 01-2.432-.32 2.828 2.828 0 01-1.024-.384c-.32-.128-.64-.32-.832-.512l-.256-.256c-.064-.128-.128-.256-.128-.384a1.696 1.696 0 01-.064-.832l.064-.064V77.8c.128-.064.32-.064.448-.064.512-.064 1.024-.128 1.472-.256.96-.192 1.92-.576 2.816-1.088a9.146 9.146 0 001.28-.896l.576-.512c.192-.256.384-.448.512-.768.128-.192.192-.384.256-.64 0-.064.064-.128.064-.256v-.256c-.064-.064-.064-.128-.064-.256-.064-.064-.064-.192-.128-.256a.485.485 0 00-.128-.256c0-.064-.064-.064-.064-.128-.064 0-.064-.064-.128-.064 0-.064-.064-.064-.064-.128-.064 0-.064 0-.128-.064-.064 0-.128-.064-.128-.064-.256-.192-.448-.192-.64-.256-.384-.064-.704-.064-.96-.064-.32 0-.576.064-.832.128-.128 0-.256.064-.384.064l-.32.128h-.192l-.192.064-.32.128c-.064 0-.128.064-.192.064l-.192.064-.32.128h-.064l-.128.064-.192.064c-.064.064-.192.128-.32.192l-.32.192c-.064 0-.128 0-.192.064l-.192.128-.128.064-.192.128-.32.256a6.452 6.452 0 00-1.088 1.216l-.256.384-.192.32-.128.384-.064.064c-.192.192-.384.512-.384.832v.448l-.064.064c0 .064 0 .128-.064.192v.256a3.448 3.448 0 00.064 1.792c.064.32.192.64.384.896.192.32.384.512.576.768.448.384.96.704 1.408.96.512.256 1.024.384 1.472.512.512.128 1.024.192 1.472.256.512.064.96.128 1.472.128.896 0 1.856-.064 2.816-.128.896-.128 1.856-.32 2.752-.512 1.856-.384 3.584-1.024 5.312-1.792a29.14 29.14 0 002.432-1.28c.448-.256.832-.448 1.216-.704l.576-.384.32-.192.128-.128c.064 0 .128-.064.192-.128h.064c.448-.448.512-1.152.128-1.6zm-19.136-.96l.192-.128.128-.128.128-.064.064-.064c.064 0 .128-.064.128-.064l.256-.128c.064-.064.192-.064.256-.128l.128-.064h.064l.064-.064.32-.064.128-.064c.064-.064.064-.064.128-.064l.32-.064.256-.128.32-.064.256-.064c-.32.256-.64.512-.96.704-.32.192-.64.32-1.024.448-.384.192-.768.256-1.152.384-.064 0-.192 0-.256.064.064-.064.128-.192.256-.256zm36.878-45.632c0-.384 0-.768-.064-1.152-.064-.192-.064-.384-.128-.64l-.192-.64c0-.128-.064-.256-.128-.384a1.339 1.339 0 00-.256-.384c-.128-.128-.256-.32-.448-.448a.581.581 0 00-.448-.192 1.187 1.187 0 00-.448-.128c-.192 0-.576.128-.64.192-.128.064-.256.192-.256.192-.064.064-.128.128-.128.192-.064 0-.064.064-.064.064-.064.128-.128.192-.128.256-.064.192-.128.256-.128.384l-.192.576c-.064.384-.192.768-.256 1.088-.064.384-.128.768-.192 1.088l-.384 2.176c-.256 1.472-.512 2.88-.704 4.288-.256 1.472-.448 2.88-.64 4.352-.832 5.696-1.536 11.456-2.304 17.216l-.768 5.824c-.896 2.688-1.664 5.44-2.496 8.128v.064h-.192c-.128 0-.256 0-.384.064h-.32c-.384.128-.768.256-1.152.32-.768.256-1.472.576-2.176.96a9.19 9.19 0 00-1.984 1.216l-.96.768c-.32.32-.576.64-.832 1.024-.064.064-.128.192-.192.256l-.192.32c-.064.192-.192.448-.256.64l-.192.704c0 .256-.064.512 0 .768 0 .32.064.576.128.832s.192.512.32.768c.192.256.32.448.576.64.192.192.384.32.64.448s.512.256.704.32c.256.064.512.128.768.128s.512.064.704 0h.384c.128-.064.192-.064.32-.064.448-.128.896-.256 1.344-.512a4.205 4.205 0 001.088-.768c.32-.32.64-.64.896-.96.256-.32.448-.64.64-1.024a10.2 10.2 0 001.024-2.048l.256-.64-.96 7.68-.512 4.352-.128 1.088c0 .32-.064.704-.064 1.088l-.064.256v.448c0-.064.128.448.128.384 0 .064 0 .064.064.128 0 .064 0 .128.064.128l.128.192.192.192.384.256c.064 0 .192 0 .256.064h.704c.064-.064.128-.064.192-.064.064-.064.128-.064.192-.064 0-.064.064-.064.064-.064.064 0 .064-.064.064-.064.064 0 .128-.064.192-.064 0-.064.064-.064.064-.128a.138.138 0 00.128-.128c.256-.256.384-.512.512-.768.256-.64 0-1.28-.576-1.536-.128 0-.256-.064-.384-.064l.128-1.088c.128-1.408.256-2.88.448-4.288.32-2.88.64-5.76 1.024-8.64.32-2.88.704-5.696 1.024-8.576.128-.768.192-1.536.32-2.304 0-.064.064-.192.128-.32.448-1.344.832-2.752 1.28-4.16.448-1.408.832-2.816 1.216-4.16a206.394 206.394 0 002.112-8.512c.64-2.88 1.152-5.76 1.536-8.64.256-1.472.384-2.88.512-4.352.064-.768.064-1.472.128-2.24 0-.768 0-1.536-.064-2.304zm-2.304 4.352c-.128 1.408-.256 2.816-.448 4.224a94.763 94.763 0 01-1.536 8.512l-.576 2.624c.448-2.816.832-5.696 1.28-8.512.448-2.88.832-5.76 1.344-8.576 0 .576-.064 1.152-.064 1.728zm-10.432 41.664c-.32.64-.576 1.28-.896 1.856l-.512.768a3.034 3.034 0 01-.64.64c-.192.192-.384.32-.64.448-.192.128-.448.192-.704.256-.256.064-.512.064-.768.064-.064 0-.192 0-.32-.064a.485.485 0 01-.256-.128.655.655 0 01-.384-.32c-.064-.064-.064-.128-.064-.192-.064-.128-.064-.192-.064-.32v-.256c0-.128.064-.256.064-.384.064-.064.128-.192.192-.32 0-.064.064-.128.064-.192l.128-.128c.128-.256.32-.448.576-.64.192-.256.448-.448.704-.64.512-.384 1.088-.704 1.664-1.024.64-.32 1.216-.576 1.856-.768l.576-.192-.576 1.536z" fill="#fff" fill-opacity=".1"/></svg>