<svg width="360" height="135" viewBox="0 0 360 135" fill="none" xmlns="http://www.w3.org/2000/svg"><path d="M7.352 134.12c.96.064 1.92 0 2.816-.192a17.72 17.72 0 002.624-.768c.384-.192.832-.32 1.216-.512l1.216-.64c.768-.448 1.536-.896 2.24-1.408a39.732 39.732 0 004.032-3.328c1.216-1.216 2.432-2.496 3.52-3.84l1.536-2.048.384-.512.384-.576c.256-.32.512-.704.704-1.088.96-1.408 1.792-2.944 2.624-4.416.768-1.536 1.536-3.072 2.24-4.608A61.305 61.305 0 0035 105.512c1.344-3.072 2.624-6.272 3.84-9.408 1.216-3.2 2.368-6.4 3.456-9.6l.768-2.24a30.654 30.654 0 012.368-1.6c2.816-1.792 5.696-3.456 8.704-4.864.576-.192.768-.832.576-1.408a1.13 1.13 0 00-1.472-.512 77.295 77.295 0 00-4.608 2.304 98 98 0 00-4.352 2.624c-.064.064-.128.128-.192.128.384-1.408.832-2.752 1.216-4.16.448-1.664.896-3.328 1.216-4.992.192-.832.384-1.664.512-2.496.192-.896.32-1.728.384-2.624.064-.448.064-.896.064-1.344.064-.448 0-.96-.064-1.472 0-.128-.064-.256-.064-.384-.064-.192-.064-.32-.192-.448a1.916 1.916 0 00-.256-.512 1.948 1.948 0 00-.512-.512c-.256-.192-.512-.256-.768-.32-.32 0-.512 0-.704.064-.384.128-.704.256-.896.384-.256.192-.512.32-.64.448l-.576.512c-.32.32-.64.64-.96 1.024-.256.32-.576.64-.832.96l-.384.576-.384.512a28.973 28.973 0 01-3.264 3.648 43.67 43.67 0 01-3.712 3.136c-1.344.96-2.752 1.792-4.224 2.56-1.408.768-2.944 1.408-4.48 1.984-1.536.576-3.072.96-4.672 1.28-1.6.256-3.2.384-4.8.32a14.103 14.103 0 01-4.608-.96 10.592 10.592 0 01-3.84-2.432 11.069 11.069 0 01-2.496-3.84c-.64-1.408-1.024-3.008-1.216-4.608-.256-1.536-.256-3.2-.192-4.864 0-.768.064-1.6.128-2.432l.32-2.432c.128-.832.32-1.664.448-2.432.128-.448.192-.832.256-1.216l.192-.64.128-.576a60.474 60.474 0 011.344-4.864c.512-1.536 1.024-3.136 1.6-4.736a141.642 141.642 0 011.856-4.672 88.928 88.928 0 014.48-8.896 62.104 62.104 0 015.568-8.256 52.328 52.328 0 016.848-7.232 47.576 47.576 0 018.128-5.696 43.28 43.28 0 019.088-3.776 42.208 42.208 0 019.792-1.536 15.43 15.43 0 012.432 0h.768a.99.99 0 00-.192 1.28c.256.448.832.576 1.28.256h.128s.064-.064.128-.064l.192-.128c.192-.064.384-.128.576-.256.32-.128.704-.192 1.088-.32l.256-.064.128-.064h.256c.064.64 1.152-1.472.448-1.728-.256-.192-.256-.192-.384-.192 0-.064-.064-.064-.128-.064 0 0-.064-.064-.128-.064-.128-.064-.256-.064-.384-.128-.192 0-.448-.064-.64-.128-.256 0-.448-.064-.704-.064-.832-.128-1.728-.192-2.624-.256-.832 0-1.728-.064-2.56 0-3.456.128-6.912.64-10.24 1.6-3.328.896-6.528 2.24-9.6 3.904-3.008 1.664-5.888 3.648-8.448 5.888A60.903 60.903 0 0017.4 19.88a64.52 64.52 0 00-5.824 8.512 93.624 93.624 0 00-4.544 9.152 61.045 61.045 0 00-1.92 4.736c-.576 1.6-1.152 3.264-1.664 4.864s-1.024 3.264-1.408 4.928l-.128.64-.192.64c-.064.384-.192.832-.256 1.28-.192.832-.32 1.664-.448 2.496-.128.896-.256 1.728-.384 2.56L.44 62.312c-.064 1.728 0 3.52.256 5.248.192 1.792.64 3.52 1.344 5.184.704 1.664 1.728 3.264 3.008 4.544l.512.512c.064.064.192.128.256.192l.256.256c.384.256.768.576 1.152.768.384.256.768.512 1.216.704l1.216.576c1.728.64 3.52.96 5.312 1.088A24.465 24.465 0 0020.28 81c1.728-.256 3.456-.768 5.12-1.344 1.6-.576 3.2-1.28 4.736-2.112a46.787 46.787 0 004.48-2.752c.704-.512 1.344-1.088 2.048-1.6.64-.576 1.28-1.152 1.92-1.792a34.017 34.017 0 003.52-3.904l.32-.512c.128-.192.256-.32.384-.512l.768-.896c.256-.32.512-.576.832-.832.128-.192.256-.256.384-.384s.256-.192.384-.32v.192c.064.32.064.64.064 1.024s0 .832-.064 1.216c-.064.768-.192 1.6-.32 2.432-.128.768-.32 1.6-.512 2.432-.32 1.6-.768 3.2-1.216 4.864a130.087 130.087 0 01-1.92 6.656c-1.856 1.216-3.584 2.496-5.376 3.84a182.736 182.736 0 00-7.936 6.4c-2.56 2.176-5.056 4.544-7.488 6.912-2.432 2.432-4.736 4.864-6.976 7.488-1.152 1.28-2.24 2.56-3.264 3.968-1.024 1.344-2.048 2.688-3.008 4.16a50.68 50.68 0 00-2.688 4.416c-.384.832-.768 1.6-1.088 2.432-.32.832-.64 1.664-.896 2.496-.064.448-.192.896-.256 1.344-.064.512-.128.96-.128 1.408-.064.512 0 .96.064 1.472.064.448.128.96.32 1.472l.064.192.064.128.192.384v.064c0 .064.064.064.064.128.064.064.064.128.128.128l.192.384.32.32c.064.128.192.192.256.32.128.064.256.128.32.256.064 0 .128.064.192.128l.064.064h.128c.192.192.448.32.704.384.064.064.192.128.32.192l.192.064h.192c.512.192.96.256 1.472.32zM59.192 1.768c.064-.192.192-.256.192-.064l-.064.064h-.128zM7.544 131.88c-.384 0-.704-.064-1.024-.192h-.128l-.128-.064c-.064 0-.128-.064-.192-.064-.192-.064-.32-.192-.448-.256H5.56v-.064c-.064 0-.064-.064-.128-.064-.064-.064-.128-.064-.128-.128-.064-.064-.128-.128-.192-.128 0-.064-.064-.128-.128-.192l-.128-.192v-.064c-.064 0-.064-.064-.064-.064v-.064l-.128-.192-.064-.128v-.128c-.256-.64-.32-1.344-.256-2.048 0-.768.128-1.536.32-2.304.192-.704.512-1.472.768-2.24.32-.768.704-1.472 1.088-2.176.704-1.472 1.6-2.88 2.496-4.288 1.856-2.752 3.968-5.376 6.144-7.872 2.176-2.56 4.48-4.992 6.848-7.296 2.432-2.368 4.864-4.672 7.424-6.848a46.958 46.958 0 013.84-3.264 92.915 92.915 0 013.904-3.136l2.88-2.112a255.032 255.032 0 01-3.264 9.024 167.648 167.648 0 01-3.776 9.344c-.64 1.536-1.344 3.072-2.048 4.608-.768 1.472-1.472 3.008-2.24 4.48-.832 1.472-1.6 2.88-2.496 4.288-.256.384-.448.704-.704 1.024l-.32.512-.384.512-1.536 1.92c-1.024 1.28-2.112 2.56-3.328 3.648-1.152 1.152-2.432 2.24-3.776 3.136-.64.448-1.344.896-2.048 1.28l-1.024.576c-.384.128-.768.32-1.152.448-.704.256-1.472.512-2.24.64-.704.128-1.472.192-2.176.128zM77.506 76.2c-.32-.512-1.024-.64-1.536-.32l-.256.128-.256.192-.448.256-1.024.576a30.42 30.42 0 01-1.984 1.088 34.378 34.378 0 01-4.16 1.856c-.704.256-1.408.448-2.048.576-.192 0-.384 0-.512.064h-.512c-.32 0-.64 0-.896-.064l-.32-.128c-.064 0-.128-.064-.192-.128 0-.064 0-.064-.064-.064v-.128c0-.064 0-.256.064-.384 0-.192 0-.32.064-.512.064-.384.128-.704.256-1.088l.128-.576c0-.128.064-.192.064-.32v-.256h.064v-.192c0-.064 0-.128-.064-.128v-.192c-.064-.192-.128-.384-.256-.512-.128-.192-.256-.32-.384-.384s-.256-.128-.32-.192c-.064 0-.128-.064-.192-.064h-.128c-.192-.064-.32-.064-.512-.064-.128-.064-.256 0-.384 0-.512 0-.96.128-1.408.256h-.064c-.064.064-.064.064-.128.064h-.256l-.128.064h-.256c-.32 0-.64-.064-.96-.128-.32 0-.704-.128-1.024-.192h-.064a.883.883 0 01.192-.256l.064-.064v-.064h.064c0-.064.064-.128.128-.192.064-.192.192-.32.256-.576v-.256l.064-.128v-.256c-.064-.192-.064-.448-.192-.64-.064-.256-.192-.448-.384-.64-.128-.128-.32-.256-.512-.384l-.576-.192c-.128 0-.32-.064-.512-.064-.128 0-.32.064-.512.064-.064 0-.192.064-.32.064 0 .064-.064.064-.128.064l-.128.128c-.064 0-.128.064-.192.064-.064.064-.064.064-.128.064l-.064.064c-.128.128-.256.256-.384.32a4.08 4.08 0 00-.512.896c-.128.32-.128.704-.128 1.024.064.384.128.704.32 1.024v.064l-.384.256-.064.064c-.448.32-.576 1.024-.192 1.536.32.512 1.024.576 1.536.256l.512-.384.384-.256c.448.192.832.32 1.28.448.384.128.832.256 1.216.32.448.064.896.128 1.344.128h.704l.192-.064h.192l.192-.064h.128l.064-.064c.192 0 .384-.064.512-.128v.064l-.256 1.216a2.274 2.274 0 00-.128.64c0 .256-.064.512-.064.768 0 .128.064.256.064.448v.192l.064.064V81c.064.064.064.128.128.192v.064l.064.064c0 .064 0 .064.064.128l.064.128s0 .064.064.064c.064.128.192.256.32.384.256.192.512.384.832.512.256.128.512.192.768.256.512.064.96.064 1.472.064.064 0 .192-.064.32-.064s.192 0 .32-.064l.64-.064c.064-.064.192-.064.32-.064l.256-.128c.256 0 .448-.064.64-.128l.576-.192.576-.192a45.918 45.918 0 004.416-1.92c.704-.32 1.408-.704 2.112-1.088l1.024-.576.512-.256.256-.192.256-.128h.064c.512-.384.704-1.088.32-1.6zm20.83-.128c-.384-.512-1.088-.576-1.6-.192 0 .064-.064.064-.128.128l-.128.064c-.064.064-.128.128-.256.192-.128.128-.32.256-.512.384l-1.088.704c-.704.384-1.472.832-2.24 1.216-1.6.704-3.2 1.28-4.864 1.664-.832.192-1.664.32-2.496.384-.896.064-1.728.064-2.56 0a10.13 10.13 0 01-2.432-.32 2.828 2.828 0 01-1.024-.384c-.32-.128-.64-.32-.832-.512l-.256-.256c-.064-.128-.128-.256-.128-.384a1.696 1.696 0 01-.064-.832l.064-.064V77.8c.128-.064.32-.064.448-.064.512-.064 1.024-.128 1.472-.256.96-.192 1.92-.576 2.816-1.088a9.146 9.146 0 001.28-.896l.576-.512c.192-.256.384-.448.512-.768.128-.192.192-.384.256-.64 0-.064.064-.128.064-.256v-.256c-.064-.064-.064-.128-.064-.256-.064-.064-.064-.192-.128-.256a.485.485 0 00-.128-.256c0-.064-.064-.064-.064-.128-.064 0-.064-.064-.128-.064 0-.064-.064-.064-.064-.128-.064 0-.064 0-.128-.064-.064 0-.128-.064-.128-.064-.256-.192-.448-.192-.64-.256-.384-.064-.704-.064-.96-.064-.32 0-.576.064-.832.128-.128 0-.256.064-.384.064l-.32.128h-.192l-.192.064-.32.128c-.064 0-.128.064-.192.064l-.192.064-.32.128h-.064l-.128.064-.192.064c-.064.064-.192.128-.32.192l-.32.192c-.064 0-.128 0-.192.064l-.192.128-.128.064-.192.128-.32.256a6.452 6.452 0 00-1.088 1.216l-.256.384-.192.32-.128.384-.064.064c-.192.192-.384.512-.384.832v.448l-.064.064c0 .064 0 .128-.064.192v.256a3.448 3.448 0 00.064 1.792c.064.32.192.64.384.896.192.32.384.512.576.768.448.384.96.704 1.408.96.512.256 1.024.384 1.472.512.512.128 1.024.192 1.472.256.512.064.96.128 1.472.128.896 0 1.856-.064 2.816-.128.896-.128 1.856-.32 2.752-.512 1.856-.384 3.584-1.024 5.312-1.792a29.14 29.14 0 002.432-1.28c.448-.256.832-.448 1.216-.704l.576-.384.32-.192.128-.128c.064 0 .128-.064.192-.128h.064c.448-.448.512-1.152.128-1.6zm-19.136-.96l.192-.128.128-.128.128-.064.064-.064c.064 0 .128-.064.128-.064l.256-.128c.064-.064.192-.064.256-.128l.128-.064h.064l.064-.064.32-.064.128-.064c.064-.064.064-.064.128-.064l.32-.064.256-.128.32-.064.256-.064c-.32.256-.64.512-.96.704-.32.192-.64.32-1.024.448-.384.192-.768.256-1.152.384-.064 0-.192 0-.256.064.064-.064.128-.192.256-.256zm39.886.96c-.384-.512-1.088-.576-1.6-.192 0 .064-.064.064-.128.128l-.128.064c-.064.064-.128.128-.256.192-.128.128-.32.256-.512.384l-1.088.704c-.704.384-1.472.832-2.24 1.216-1.6.704-3.2 1.28-4.864 1.664-.832.192-1.664.32-2.496.384-.896.064-1.728.064-2.56 0a10.13 10.13 0 01-2.432-.32 2.828 2.828 0 01-1.024-.384c-.32-.128-.64-.32-.832-.512l-.256-.256c-.064-.128-.128-.256-.128-.384a1.696 1.696 0 01-.064-.832l.064-.064V77.8c.128-.064.32-.064.448-.064.512-.064 1.024-.128 1.472-.256.96-.192 1.92-.576 2.816-1.088a9.146 9.146 0 001.28-.896l.576-.512c.192-.256.384-.448.512-.768.128-.192.192-.384.256-.64 0-.064.064-.128.064-.256v-.256c-.064-.064-.064-.128-.064-.256-.064-.064-.064-.192-.128-.256a.485.485 0 00-.128-.256c0-.064-.064-.064-.064-.128-.064 0-.064-.064-.128-.064 0-.064-.064-.064-.064-.128-.064 0-.064 0-.128-.064-.064 0-.128-.064-.128-.064-.256-.192-.448-.192-.64-.256-.384-.064-.704-.064-.96-.064-.32 0-.576.064-.832.128-.128 0-.256.064-.384.064l-.32.128h-.192l-.192.064-.32.128c-.064 0-.128.064-.192.064l-.192.064-.32.128h-.064l-.128.064-.192.064c-.064.064-.192.128-.32.192l-.32.192c-.064 0-.128 0-.192.064l-.192.128-.128.064-.192.128-.32.256a6.452 6.452 0 00-1.088 1.216l-.256.384-.192.32-.128.384-.064.064c-.192.192-.384.512-.384.832v.448l-.064.064c0 .064 0 .128-.064.192v.256a3.448 3.448 0 00.064 1.792c.064.32.192.64.384.896.192.32.384.512.576.768.448.384.96.704 1.408.96.512.256 1.024.384 1.472.512.512.128 1.024.192 1.472.256.512.064.96.128 1.472.128.896 0 1.856-.064 2.816-.128.896-.128 1.856-.32 2.752-.512 1.856-.384 3.584-1.024 5.312-1.792a29.14 29.14 0 002.432-1.28c.448-.256.832-.448 1.216-.704l.576-.384.32-.192.128-.128c.064 0 .128-.064.192-.128h.064c.448-.448.512-1.152.128-1.6zm-19.136-.96l.192-.128.128-.128.128-.064.064-.064c.064 0 .128-.064.128-.064l.256-.128c.064-.064.192-.064.256-.128l.128-.064h.064l.064-.064.32-.064.128-.064c.064-.064.064-.064.128-.064l.32-.064.256-.128.32-.064.256-.064c-.32.256-.64.512-.96.704-.32.192-.64.32-1.024.448-.384.192-.768.256-1.152.384-.064 0-.192 0-.256.064.064-.064.128-.192.256-.256zm36.75.512c-.512-.384-1.216-.256-1.6.256l-.128.192c-.064 0-.064.064-.128.128-.064.128-.192.192-.32.32a3.034 3.034 0 01-.64.64 3.034 3.034 0 01-.64.64c-.256.256-.448.448-.704.64-.448.384-.96.768-1.472 1.152-.192.192-.448.32-.704.512-.256.128-.512.256-.704.384-.064 0-.128 0-.192.064h-.384c0-.064-.064-.064-.064-.064 0-.064-.064-.064-.064-.128-.064-.064-.064-.064-.064-.128l-.064-.064v-.256c-.064-.064-.064-.128-.064-.256-.064-.128-.064-.32-.128-.512-.064-.384-.192-.704-.32-1.088a6.058 6.058 0 00-.576-1.088 3.15 3.15 0 00-.896-.96c-.384-.32-.896-.512-1.344-.576-.128-.064-.256-.064-.384-.064h-.896c-.064.064-.128.064-.192.064a2.366 2.366 0 00-.704.32c-.256.064-.384.192-.576.32-.32.256-.576.576-.832.832s-.512.512-.704.768a34.642 34.642 0 01-1.152 1.6l-.576.64-.064.064h-.064c0 .064 0 .064-.064.064 0 .064 0 .064-.064.064l-.256.192h-.064v-.192c0-.256.064-.576.064-.896l.384-1.792c.064-.32.128-.576.256-.832.064-.128.064-.256.128-.384s.128-.256.128-.32c.064 0 .064-.064.064-.064.32-.576.128-1.216-.448-1.536-.576-.32-1.216-.128-1.536.448-.128.256-.192.448-.256.64l-.192.512a7.96 7.96 0 00-.256 1.024c-.192.704-.256 1.344-.384 2.048 0 .32-.064.704-.064 1.024v1.152c0 .128 0 .256.064.448 0 .064.064.064.064.128s.064.064.064.128c0 0 0 .064.064.128s.064.064.064.128c.064 0 .064 0 .064.064.064 0 .064.064.064.064.064 0 .064 0 .064.064h.064l.064.064s.064 0 .064.064h.128l.064.064h.128s0 .064.064.064h.704a2.3 2.3 0 00.704-.128c.192-.064.384-.128.576-.256.192-.064.384-.192.576-.32.064-.064.128-.064.128-.128.064 0 .128-.064.128-.064l.128-.128.128-.064.192-.256.192-.192.384-.384c.448-.512.832-1.024 1.28-1.472.192-.256.384-.512.576-.704.192-.192.384-.384.576-.512l.256-.192c.064 0 .128-.064.192-.064h.576c.064 0 .064.064.128.064s.128.064.192.128c.128.064.256.192.384.384.256.384.512.896.64 1.408.064.128.064.32.064.448.064.064.064.128.064.256.064.064.064.192.064.32l.064.128c0 .064.064.128.064.192.064.064.064.192.128.32.128.192.256.448.512.64.192.192.384.384.704.512.256.128.512.192.768.256h.64c.064-.064.128-.064.192-.064h.064l.128-.064h.128c.128-.064.256-.064.32-.128.384-.128.704-.32 1.024-.512.32-.128.64-.32.896-.512a16.385 16.385 0 001.664-1.28c.512-.448 1.024-.896 1.472-1.408.256-.192.512-.448.704-.704.128-.128.256-.32.384-.448l.192-.192a.485.485 0 00.128-.256c.384-.512.256-1.152-.192-1.536zm1.945 8.128h.896l.256-.064h.256l.256-.064c.128 0 .192-.064.256-.064.192-.064.384-.064.512-.128l.512-.192c.128 0 .32-.064.448-.128.064-.064.192-.064.256-.128l.192-.128.256-.064.192-.128.448-.256.448-.192c.128-.128.256-.192.448-.256l.384-.32.192-.128c.064-.064.128-.128.192-.128.256-.192.512-.384.768-.64l.384-.32.064-.064c.064 0 .064-.064.128-.064l.192-.192c.896-.896 1.792-1.856 2.496-2.88 0-.064.064-.064.064-.064.32-.512.192-1.216-.32-1.536-.512-.384-1.216-.256-1.536.256-.704.96-1.408 1.856-2.24 2.624l-.192.128c0 .064 0 .064-.064.064l-.384.384c-.128.064-.192.192-.32.256l-.32.256c-.064.064-.128.128-.192.128l-.192.128-.32.256-.384.192c-.128.064-.192.192-.32.256l-.384.192c-.064 0-.128.064-.192.064l-.192.128-.192.064c-.064 0-.128.064-.192.064l-.384.192-.384.128c-.128 0-.256.064-.384.064-.064 0-.128.064-.192.064h-.128c-.064.064-.128.064-.192.064h-1.024l-.064-.064h-.256c0-.064-.064-.064-.064-.064-.192-.064-.32-.192-.448-.32v-.064h-.064c0-.064-.064-.128-.064-.128-.064-.128-.128-.192-.128-.32a.485.485 0 01-.128-.256l-.064-.192-.064-.128v-.256l-.064-.192c0-.128 0-.256-.064-.32v-.832l.064-.448v-.448c.064-1.216.192-2.368.32-3.584.064-.96.192-1.856.256-2.752.128-.128.256-.32.32-.512l1.92-7.04c.576-2.368 1.216-4.736 1.856-7.104l1.728-7.104.448-1.792c.128-.64.256-1.216.384-1.792l.768-3.584c.128-.64.256-1.216.384-1.792l.192-.96.192-.896c.256-1.216.448-2.368.64-3.584.256-1.216.448-2.432.576-3.648.128-.64.192-1.216.256-1.856.064-.64.128-1.28.128-1.92.064-.32.064-.64 0-1.024 0-.192 0-.384-.064-.576 0-.128 0-.256-.064-.448l-.064-.064v-.064c-.064 0-.064-.064-.064-.064l-.064-.064c0-.064 0-.064-.064-.128 0-.064-.064-.064-.064-.128-.064 0-.128-.064-.128-.064-.064-.064-.128-.128-.192-.128l-.448-.192c-.128 0-.32 0-.448.064h-.128c-.064.064-.128.064-.128.064-.064.064-.064.064-.128.064l-.064.064c-.064 0-.064.064-.064.064l-.064.064c-.064 0-.128.064-.128.064-.064 0-.064.064-.064.064l-.064.128c-.192.192-.32.32-.384.512-.192.32-.384.576-.512.896a20.753 20.753 0 00-.704 1.792c-.192.576-.448 1.152-.64 1.728-.384 1.216-.704 2.368-1.088 3.584l-.448 1.792-.256.896-.192.896c-.512 2.432-.96 4.8-1.408 7.232a153.668 153.668 0 00-1.152 7.232c-.768 4.864-1.408 9.728-2.048 14.528-.32 2.432-.576 4.864-.832 7.296-.128 1.216-.256 2.496-.32 3.712v.448l-.064.512V79.4c.064.192.064.384.064.512l.128.512v.128l.064.128.064.32.192.512c.064.192.192.384.32.512 0 .128.064.192.128.32.064 0 .064.064.128.128l.128.064c.256.384.64.64 1.024.832.128.064.192.064.32.128l.256.064.128.064h.064l.128.064h.32c.064.064.192.064.256.064zm1.6-30.4c.064-.384.128-.768.192-1.088l1.152-7.232c.448-2.368.896-4.736 1.408-7.104l.192-.896.192-.832c.192-.64.32-1.216.512-1.792.32-1.152.64-2.304 1.024-3.456 0-.128.064-.32.128-.448 0 .192-.064.384-.064.576l-.576 3.584a70.138 70.138 0 01-.64 3.584l-.192.896-.192.896c-.128.576-.192 1.152-.384 1.728-.512 2.432-1.088 4.736-1.664 7.104l-.896 3.584-.192.896zm8.797 17.344c.128 0 .32 0 .512-.064.768-.384 2.112-.96 2.624-1.088.64-.064 1.088-.704.96-1.28-.128-.64-.704-1.088-1.344-.96-.96.128-2.88 1.024-3.264 1.216-.576.256-.832.96-.512 1.536.192.384.576.64 1.024.64zm.32 12.224h.96c.128 0 .192-.064.32-.064.256 0 .448 0 .704-.064.128 0 .192 0 .32-.064.128 0 .256 0 .32-.064a11.972 11.972 0 002.56-.832l.576-.32c.192-.128.384-.192.576-.32l.256-.192.256-.128c.192-.128.384-.256.576-.32.384-.256.704-.512 1.088-.704l1.024-.768c.384-.256.704-.512 1.024-.768.192-.128.32-.256.512-.384l.512-.448.064-.064c.448-.448.384-1.216-.064-1.6-.448-.448-1.152-.384-1.6.064l-.384.384a2.784 2.784 0 01-.448.384c-.256.256-.576.512-.896.768l-.96.704c-.32.192-.64.384-.96.64-.64.384-1.408.704-2.112.96-.32.128-.704.256-1.024.384l-.512.192c-.128.064-.192.064-.256.064l-.32.064c-.064.064-.128.064-.256.064-.064.064-.192.064-.256.064-.192.064-.32.064-.512.064-.128.064-.192.064-.256.064h-.768a.727.727 0 01-.512-.192c-.128-.128-.192-.256-.192-.384v-.448c0-.192.064-.384.064-.512.064-.384.064-.768.192-1.088.064-.384.128-.768.256-1.088l.384-1.088c.192-.576-.064-1.152-.64-1.408-.512-.256-1.216 0-1.408.576-.384.832-.64 1.664-.832 2.56l-.192 1.344v1.216c0 .064 0 .128.064.192 0 .384.128.704.256.96.192.32.384.576.64.768.256.256.512.384.768.512.32.128.64.256.96.256l.128.064zm31.389-7.424c-.512-.32-1.216-.128-1.536.384-.768 1.28-1.536 2.496-2.304 3.776l-2.176 3.712a456.698 456.698 0 00-4.352 7.552l-2.56 4.672.384-2.112 1.408-8.512.768-4.352c.128-.704.192-1.408.32-2.112.064-.384.128-.704.192-1.088l.128-1.088.064-.32v-.768c-.32-.064.64-.32-1.216-.96-.896.384-.832.448-.768.448h-.064v.064l-.128.128-.064.128c-.128.128-.192.32-.32.448a1.394 1.394 0 00-.512-.32l-.192-.064h-.128l-.256-.064-.576-.192-1.152-.192a13.992 13.992 0 00-2.304-.192c-.448 0-.832.064-1.28.128-.384.064-.832.128-1.28.32-.448.192-.832.384-1.216.704l-.576.576-.192.32a.883.883 0 01-.192.256 7.628 7.628 0 00-.512 1.28c-.064.256-.128.512-.128.768v.768c.064.256.128.576.256.832l.384.704c.32.384.768.704 1.152.96.448.256.896.448 1.344.512.384.128.896.192 1.344.192h.32c.064 0 .128 0 .192-.064h.192c.256-.064.448-.064.64-.128.448-.128.832-.32 1.216-.512.768-.384 1.408-.896 1.984-1.408.448-.448.896-.832 1.28-1.28l-.128.896c-.256 1.408-.448 2.88-.704 4.288l-.704 4.288-.768 4.288a394.43 394.43 0 01-1.472 8.512v.128a60.486 60.486 0 00-2.304 4.544l-1.92 3.968c-.576 1.344-1.152 2.688-1.664 4.032l-.192.576-.192.512-.192.512-.192.512c-.192.704-.448 1.408-.64 2.112-.448 1.344-.896 2.752-1.216 4.224-.192.704-.32 1.472-.448 2.24-.064.384-.064.768-.064 1.216-.064.384 0 .832.064 1.344.064.256.128.512.32.832.128.256.32.576.64.768.32.256.704.384 1.024.448h.512c.192 0 .32-.064.448-.064a3.25 3.25 0 001.408-.704c.384-.32.704-.64.96-.96.256-.384.512-.704.704-1.088.192-.32.384-.704.512-1.088.32-.704.576-1.472.768-2.176.192-.768.32-1.472.448-2.24l.192-1.088.192-1.024 2.944-17.024c.448-.832.96-1.728 1.408-2.624 1.344-2.56 2.752-5.056 4.16-7.552a208.98 208.98 0 014.352-7.488 287.007 287.007 0 014.544-7.424c.32-.576.128-1.216-.384-1.6zm-9.984.704l.064-.064c-.128 0 .128-.064-.064.064zm-3.776 1.344c-.448.512-.896 1.024-1.408 1.408-.512.448-1.024.832-1.536 1.152a4.444 4.444 0 01-.832.32c-.128 0-.256.064-.384.064h-.064c-.064 0-.064 0-.128.064h-.192a2.973 2.973 0 01-1.472-.384c-.192-.128-.384-.256-.512-.448l-.192-.448c0-.192 0-.384.064-.64.064-.192.192-.448.32-.704 0-.064.064-.128.128-.192 0-.064 0-.128.064-.128l.192-.256c.192-.128.384-.256.64-.32.256-.128.512-.192.832-.256.256 0 .576-.064.896-.064.64 0 1.28.064 1.984.192.32 0 .64.064.96.192.192 0 .384.064.512.064l.256.064.064.064c-.064.064-.128.128-.192.256zm-5.504 41.216l-.384 2.176c-.128.704-.256 1.344-.448 1.984-.192.704-.384 1.344-.64 1.92l-.384.896c-.192.256-.32.512-.512.768l-.576.576a.485.485 0 01-.256.128c-.128.064-.192.128-.256.128h-.128c0-.064 0-.128-.064-.256 0-.192-.064-.448-.064-.768.064-.32.064-.64.128-.96.064-.704.192-1.344.32-2.048.32-1.344.704-2.752 1.152-4.096.192-.704.384-1.408.64-2.048.064-.192.064-.384.128-.576l.192-.448c.064-.192.128-.32.128-.512l.192-.512c.512-1.344 1.024-2.624 1.664-3.968.256-.64.576-1.28.896-1.984l-1.728 9.6zm41.059-43.072c-.448-.384-1.152-.32-1.6.192l-.128.192-.192.192c-.128.128-.256.256-.32.384-.256.256-.512.512-.704.768-.512.512-1.024.96-1.536 1.408-.512.448-1.024.896-1.536 1.28-.32.128-.576.32-.832.448-.256.192-.576.32-.832.384-.064 0-.128 0-.192.064h-.192c-.128.064-.192.064-.32.064s-.192 0-.256-.064c-.128 0-.192 0-.256-.064h-.064v-.064c-.064 0-.064 0-.064-.064h-.064c0-.064-.064-.128-.128-.256a4.261 4.261 0 01-.384-.768 28.91 28.91 0 01-.576-2.048c-.128-.32-.256-.704-.448-1.152l-.384-.576a2.601 2.601 0 00-.576-.64c-.192-.128-.448-.32-.768-.448-.32-.064-.576-.128-.896-.128-.256 0-.512.064-.768.128l-.64.192c-.384.192-.768.384-1.088.576l-.576.384c-.128.064-.32.192-.448.32-.64.512-1.152 1.088-1.664 1.664l-1.408 1.6a37.92 37.92 0 01-1.344 1.664l-.704.704-.192.192c0-.256 0-.512.064-.704l.064-.512.064-.576c.128-.704.192-1.408.32-2.112l.32-2.112.512-2.88c.064-.064.128-.128.128-.192l.128-.256.128-.32c.064-.064.064-.192.128-.256s.064-.192.128-.256l.064-.256.128-.256.192-.576c.192-.704.448-1.344.64-2.048a58.444 58.444 0 001.152-4.16 200.77 200.77 0 002.112-8.384l1.92-8.448c.256-1.408.576-2.816.832-4.224l.768-4.224.768-4.288c.192-1.408.384-2.816.576-4.288l.192-2.24v-1.472l-.064-.064v-.256c0-.064 0-.192-.064-.32v-.192c-.064-.064-.064-.064-.064-.128 0 0 0-.064-.064-.128v-.128c-.064 0-.064 0-.064-.064v-.064c-.064-.064-.128-.192-.256-.32 0 0-.064-.064-.128-.064 0-.064-.064-.064-.064-.128-.064 0-.128-.064-.192-.064l-.128-.128c-.128 0-.32-.064-.448-.064h-.192c-.064 0-.128.064-.128.064-.064 0-.128 0-.192.064h-.128c0 .064-.064.064-.064.064-.064.064-.064.064-.128.064l-.128.128c-.064 0-.064.064-.128.064l-.256.384c-.192.192-.256.384-.384.576-.064.192-.192.384-.256.576-.32.704-.512 1.408-.768 2.112-.384 1.408-.768 2.816-1.088 4.224-.32 1.472-.64 2.88-.896 4.288-.576 2.816-1.088 5.632-1.6 8.448-.256 1.408-.448 2.88-.704 4.288l-.64 4.224-1.344 8.512-1.344 8.512-.64 4.224c-.256 1.408-.448 2.816-.64 4.288l-.128.512c0 .192 0 .384-.064.576 0 .192 0 .384-.064.576v1.472l.064.064v.192c.064 0 .064.064.064.064v.064c.064.064.064.128.064.192l.128.128c0 .064.064.064.064.128l.064.064c.064.064.192.128.256.192l.192.128c.064 0 .128.064.192.064.128.064.256.128.384.128h.32c.064 0 .128 0 .192-.064h.128c.064 0 .064 0 .128-.064h.128l.384-.192c.192-.192.384-.32.576-.448l.448-.384c.256-.32.512-.576.768-.832l1.408-1.664c.448-.576.96-1.088 1.408-1.6.448-.512.96-1.024 1.408-1.408l.384-.32c.128-.064.256-.192.384-.256l.768-.384c.256-.128.512-.192.64-.128h.192c.064 0 .064 0 .128.064.128.064.256.256.384.512.064.256.192.576.32.832.192.64.32 1.344.576 2.112.128.384.32.768.576 1.216.128.192.256.384.448.576.064.064.128.128.128.192.064 0 .128.064.192.128.064 0 .128.064.192.128.064 0 .064.064.128.064.256.192.512.256.768.32.32.064.576.128.832.128s.512-.064.704-.064c.128 0 .256-.064.384-.064.064-.064.192-.064.32-.128.384-.128.768-.256 1.152-.448l1.024-.64c.64-.448 1.216-.896 1.792-1.408.576-.448 1.088-.96 1.664-1.536l.768-.768c.128-.128.256-.32.32-.448l.384-.384v-.064c.448-.448.384-1.152-.128-1.6zm-17.024-24.96c.192-1.408.448-2.816.64-4.224.512-2.816.96-5.632 1.536-8.384.256-1.408.576-2.816.896-4.224.256-1.152.576-2.368.896-3.52l-.064.256a47.79 47.79 0 01-.576 4.224c-.192 1.408-.448 2.816-.704 4.224a194.86 194.86 0 01-1.728 8.384c-.448 2.112-.896 4.224-1.408 6.272l.512-3.008zm47.606 7.936h-.32c-.448 0-.832-.064-1.216-.064h-4.48c-1.984 0-3.968.064-5.952.128-1.92.064-3.904.256-5.888.32-.96.064-1.92.128-2.944.128l-2.944.192c-.448 0-.96 0-1.472.064l-1.472.064c0 .064-.064.064-.128.064l.064-.064c.128-.832.32-1.6.448-2.432l.256-1.216.192-1.152.576-2.368.32-1.216.192-.576c0-.192.064-.384.128-.576l.384-1.152.064-.32.064-.256.384-1.152c.064-.128.064-.192.064-.32l.128-.256.384-1.088.064-.064a1.123 1.123 0 00-.704-1.408c-.576-.256-1.216.064-1.408.64l-.448 1.216-.064.256c-.064.128-.064.256-.128.32l-.192.576-.128.64-.128.32-.064.256-.32 1.216a8.526 8.526 0 00-.32 1.216l-.32 1.216c-.064.384-.192.768-.256 1.216-.128.384-.192.768-.32 1.152l-.576 2.432c-.192.768-.384 1.6-.512 2.432l-.128.704c-.192 0-.32 0-.512.064l-5.888.448c-.448 0-.96.064-1.472.064-.448.064-.96.064-1.408.128-1.024.064-1.984.256-2.944.32-.512.064-1.024.064-1.472.128-.512 0-1.024.064-1.472.064a49.998 49.998 0 01-2.944.256c-.64.064-1.088.576-1.024 1.216.064.64.576 1.088 1.216 1.024l2.944-.32c.448 0 .96-.064 1.472-.128.448-.064.96-.128 1.408-.128 1.024-.064 1.984-.064 2.944-.192.512 0 1.024-.064 1.472-.128.512-.064 1.024-.064 1.472-.128l2.944-.256 2.816-.192-.384 1.856-.384 2.432c-.192.832-.32 1.6-.448 2.432l-.448 2.432-.384 2.432-.256 1.216-.064.576-.128.64-.384 2.432c-.256 1.6-.448 3.264-.704 4.864l-1.28 9.728c-.256 1.664-.512 3.264-.704 4.864-.192 1.664-.448 3.264-.64 4.928-.192 1.6-.384 3.264-.576 4.864l-.576 4.864-.128 1.216-.192 1.216-.256 2.496-.064.576-.064.32c0 .064 0 .192-.064.256v.32l-.064.192v.448c0 .064 0 .128.064.192 0 .064 0 .128.192.384.256.384 1.088.256 1.152.128.128-.128.192-.128.192-.192l.128-.128c.064-.064.064-.128.064-.192.064-.064.064-.128.064-.192l.064-.128c.128-.192.192-.384.256-.576l.192-.576.192-.576c.064-.064.064-.128.128-.192v-.064c.32-.256.32-.768.128-1.088-.128-.192-.384-.32-.576-.384l.064-.768.192-1.216.128-1.216.384-2.432.32-2.432.704-4.864 1.28-9.728c.256-1.664.448-3.264.704-4.864l.832-4.864.768-4.864.384-2.368c.128-.832.192-1.664.32-2.432.256-1.664.576-3.264.832-4.864.128-.832.256-1.6.448-2.432l.192-1.216.256-1.152.192-1.216.128-.64.128-.576c.256 0 .512 0 .768-.064l2.944-.192 4.352-.384c.512-.064 1.024-.064 1.472-.128 1.984-.128 3.904-.192 5.888-.32 1.984-.064 3.904-.192 5.888-.256.704-.064 1.472-.064 2.24-.128 0 .128.064.256.128.384a.913.913 0 001.28.128l.384-.256c.192-.064.384-.064.512-.128.192 0 .448-.064.64-.064h.64c.448.064.896-.32.896-.832.064-.448-.32-.896-.768-.96zm-.651 75.456c.96.064 1.92 0 2.816-.192a17.72 17.72 0 002.624-.768c.384-.192.832-.32 1.216-.512l1.216-.64c.768-.448 1.536-.896 2.24-1.408a39.732 39.732 0 004.032-3.328c1.216-1.216 2.432-2.496 3.52-3.84l1.536-2.048.384-.512.384-.576c.256-.32.512-.704.704-1.088.96-1.408 1.792-2.944 2.624-4.416.768-1.536 1.536-3.072 2.24-4.608a61.305 61.305 0 002.112-4.672c1.344-3.072 2.624-6.272 3.84-9.408 1.216-3.2 2.368-6.4 3.456-9.6l.768-2.24a30.654 30.654 0 012.368-1.6c2.816-1.792 5.696-3.456 8.704-4.864.576-.192.768-.832.576-1.408a1.13 1.13 0 00-1.472-.512 77.295 77.295 0 00-4.608 2.304 98 98 0 00-4.352 2.624c-.064.064-.128.128-.192.128.384-1.408.832-2.752 1.216-4.16.448-1.664.896-3.328 1.216-4.992.192-.832.384-1.664.512-2.496.192-.896.32-1.728.384-2.624.064-.448.064-.896.064-1.344.064-.448 0-.96-.064-1.472 0-.128-.064-.256-.064-.384-.064-.192-.064-.32-.192-.448a1.916 1.916 0 00-.256-.512 1.948 1.948 0 00-.512-.512c-.256-.192-.512-.256-.768-.32-.32 0-.512 0-.704.064-.384.128-.704.256-.896.384-.256.192-.512.32-.64.448l-.576.512c-.32.32-.64.64-.96 1.024-.256.32-.576.64-.832.96l-.384.576-.384.512a28.973 28.973 0 01-3.264 3.648 43.67 43.67 0 01-3.712 3.136c-1.344.96-2.752 1.792-4.224 2.56-1.408.768-2.944 1.408-4.48 1.984-1.536.576-3.072.96-4.672 1.28-1.6.256-3.2.384-4.8.32a14.103 14.103 0 01-4.608-.96 10.592 10.592 0 01-3.84-2.432 11.069 11.069 0 01-2.496-3.84c-.64-1.408-1.024-3.008-1.216-4.608-.256-1.536-.256-3.2-.192-4.864 0-.768.064-1.6.128-2.432l.32-2.432c.128-.832.32-1.664.448-2.432.128-.448.192-.832.256-1.216l.192-.64.128-.576a60.474 60.474 0 011.344-4.864c.512-1.536 1.024-3.136 1.6-4.736a141.642 141.642 0 011.856-4.672 88.928 88.928 0 014.48-8.896 62.104 62.104 0 015.568-8.256 52.328 52.328 0 016.848-7.232 47.576 47.576 0 018.128-5.696 43.28 43.28 0 019.088-3.776 42.208 42.208 0 019.792-1.536 15.43 15.43 0 012.432 0h.768a.99.99 0 00-.192 1.28c.256.448.832.576 1.28.256h.128s.064-.064.128-.064l.192-.128c.192-.064.384-.128.576-.256.32-.128.704-.192 1.088-.32l.256-.064.128-.064h.256c.064.64 1.152-1.472.448-1.728-.256-.192-.256-.192-.384-.192 0-.064-.064-.064-.128-.064 0 0-.064-.064-.128-.064-.128-.064-.256-.064-.384-.128-.192 0-.448-.064-.64-.128-.256 0-.448-.064-.704-.064-.832-.128-1.728-.192-2.624-.256-.832 0-1.728-.064-2.56 0-3.456.128-6.912.64-10.24 1.6-3.328.896-6.528 2.24-9.6 3.904-3.008 1.664-5.888 3.648-8.448 5.888a60.903 60.903 0 00-7.168 7.488 64.52 64.52 0 00-5.824 8.512 93.624 93.624 0 00-4.544 9.152 61.045 61.045 0 00-1.92 4.736c-.576 1.6-1.152 3.264-1.664 4.864s-1.024 3.264-1.408 4.928l-.128.64-.192.64c-.064.384-.192.832-.256 1.28-.192.832-.32 1.664-.448 2.496-.128.896-.256 1.728-.384 2.56l-.192 2.624c-.064 1.728 0 3.52.256 5.248.192 1.792.64 3.52 1.344 5.184.704 1.664 1.728 3.264 3.008 4.544l.512.512c.064.064.192.128.256.192l.256.256c.384.256.768.576 1.152.768.384.256.768.512 1.216.704l1.216.576c1.728.64 3.52.96 5.312 1.088a24.465 24.465 0 005.312-.384c1.728-.256 3.456-.768 5.12-1.344 1.6-.576 3.2-1.28 4.736-2.112a46.787 46.787 0 004.48-2.752c.704-.512 1.344-1.088 2.048-1.6.64-.576 1.28-1.152 1.92-1.792a34.017 34.017 0 003.52-3.904l.32-.512c.128-.192.256-.32.384-.512l.768-.896c.256-.32.512-.576.832-.832.128-.192.256-.256.384-.384s.256-.192.384-.32v.192c.064.32.064.64.064 1.024s0 .832-.064 1.216c-.064.768-.192 1.6-.32 2.432-.128.768-.32 1.6-.512 2.432-.32 1.6-.768 3.2-1.216 4.864a130.087 130.087 0 01-1.92 6.656c-1.856 1.216-3.584 2.496-5.376 3.84a182.736 182.736 0 00-7.936 6.4c-2.56 2.176-5.056 4.544-7.488 6.912-2.432 2.432-4.736 4.864-6.976 7.488-1.152 1.28-2.24 2.56-3.264 3.968-1.024 1.344-2.048 2.688-3.008 4.16a50.68 50.68 0 00-2.688 4.416c-.384.832-.768 1.6-1.088 2.432-.32.832-.64 1.664-.896 2.496-.064.448-.192.896-.256 1.344-.064.512-.128.96-.128 1.408-.064.512 0 .96.064 1.472.064.448.128.96.32 1.472l.064.192.064.128.192.384v.064c0 .064.064.064.064.128.064.064.064.128.128.128l.192.384.32.32c.064.128.192.192.256.32.128.064.256.128.32.256.064 0 .128.064.192.128l.064.064h.128c.192.192.448.32.704.384.064.064.192.128.32.192l.192.064h.192c.512.192.96.256 1.472.32zm51.84-132.352c.064-.192.192-.256.192-.064l-.064.064h-.128zM232.669 131.88c-.384 0-.704-.064-1.024-.192h-.128l-.128-.064c-.064 0-.128-.064-.192-.064-.192-.064-.32-.192-.448-.256h-.064v-.064c-.064 0-.064-.064-.128-.064-.064-.064-.128-.064-.128-.128-.064-.064-.128-.128-.192-.128 0-.064-.064-.128-.128-.192l-.128-.192v-.064c-.064 0-.064-.064-.064-.064v-.064l-.128-.192-.064-.128v-.128c-.256-.64-.32-1.344-.256-2.048 0-.768.128-1.536.32-2.304.192-.704.512-1.472.768-2.24.32-.768.704-1.472 1.088-2.176.704-1.472 1.6-2.88 2.496-4.288 1.856-2.752 3.968-5.376 6.144-7.872 2.176-2.56 4.48-4.992 6.848-7.296 2.432-2.368 4.864-4.672 7.424-6.848a46.958 46.958 0 013.84-3.264 92.915 92.915 0 013.904-3.136l2.88-2.112a255.032 255.032 0 01-3.264 9.024 167.648 167.648 0 01-3.776 9.344c-.64 1.536-1.344 3.072-2.048 4.608-.768 1.472-1.472 3.008-2.24 4.48-.832 1.472-1.6 2.88-2.496 4.288-.256.384-.448.704-.704 1.024l-.32.512-.384.512-1.536 1.92c-1.024 1.28-2.112 2.56-3.328 3.648-1.152 1.152-2.432 2.24-3.776 3.136-.64.448-1.344.896-2.048 1.28l-1.024.576c-.384.128-.768.32-1.152.448-.704.256-1.472.512-2.24.64-.704.128-1.472.192-2.176.128zm69.962-55.68c-.32-.512-1.024-.64-1.536-.32l-.256.128-.256.192-.448.256-1.024.576a30.42 30.42 0 01-1.984 1.088 34.378 34.378 0 01-4.16 1.856c-.704.256-1.408.448-2.048.576-.192 0-.384 0-.512.064h-.512c-.32 0-.64 0-.896-.064l-.32-.128c-.064 0-.128-.064-.192-.128 0-.064 0-.064-.064-.064v-.128c0-.064 0-.256.064-.384 0-.192 0-.32.064-.512.064-.384.128-.704.256-1.088l.128-.576c0-.128.064-.192.064-.32v-.256h.064v-.192c0-.064 0-.128-.064-.128v-.192c-.064-.192-.128-.384-.256-.512-.128-.192-.256-.32-.384-.384s-.256-.128-.32-.192c-.064 0-.128-.064-.192-.064h-.128c-.192-.064-.32-.064-.512-.064-.128-.064-.256 0-.384 0-.512 0-.96.128-1.408.256h-.064c-.064.064-.064.064-.128.064h-.256l-.128.064h-.256c-.32 0-.64-.064-.96-.128-.32 0-.704-.128-1.024-.192h-.064c.064-.128.128-.192.192-.256l.064-.064v-.064h.064c0-.064.064-.128.128-.192.064-.192.192-.32.256-.576v-.256l.064-.128v-.256c-.064-.192-.064-.448-.192-.64-.064-.256-.192-.448-.384-.64-.128-.128-.32-.256-.512-.384l-.576-.192c-.128 0-.32-.064-.512-.064-.128 0-.32.064-.512.064-.064 0-.192.064-.32.064 0 .064-.064.064-.128.064l-.128.128c-.064 0-.128.064-.192.064-.064.064-.064.064-.128.064l-.064.064c-.128.128-.256.256-.384.32a4.08 4.08 0 00-.512.896c-.128.32-.128.704-.128 1.024.064.384.128.704.32 1.024v.064l-.384.256-.064.064c-.448.32-.576 1.024-.192 1.536.32.512 1.024.576 1.536.256l.512-.384.384-.256c.448.192.832.32 1.28.448.384.128.832.256 1.216.32.448.064.896.128 1.344.128h.704l.192-.064h.192l.192-.064h.128l.064-.064c.192 0 .384-.064.512-.128v.064l-.256 1.216a2.274 2.274 0 00-.128.64c0 .256-.064.512-.064.768 0 .128.064.256.064.448v.192l.064.064V81c.064.064.064.128.128.192v.064l.064.064c0 .064 0 .064.064.128l.064.128s0 .064.064.064c.064.128.192.256.32.384.256.192.512.384.832.512.256.128.512.192.768.256.512.064.96.064 1.472.064.064 0 .192-.064.32-.064s.192 0 .32-.064l.64-.064c.064-.064.192-.064.32-.064l.256-.128c.256 0 .448-.064.64-.128l.576-.192.576-.192a45.918 45.918 0 004.416-1.92c.704-.32 1.408-.704 2.112-1.088l1.024-.576.512-.256.256-.192.256-.128h.064c.512-.384.704-1.088.32-1.6zm13.726-.384c-.32-.448-1.024-.576-1.536-.192l-.256.192h-.064v.064l-.064.064c-.064 0-.128.064-.192.064 0 .064-.064.064-.128.128-.256.128-.512.256-.768.32a8.376 8.376 0 01-1.792.576l-1.792.384h-.256v-.576a7.372 7.372 0 00-.384-1.344 4.484 4.484 0 00-.512-.64c-.192-.192-.448-.448-.768-.576-.128-.064-.32-.064-.512-.128h-.192c-.128 0-.192-.064-.256 0h-.448c-.064.064-.128.064-.192.064-.064.064-.192.064-.256.064-.256.128-.512.32-.768.512 0 0 0 .064-.064.064.128-.32.128-.64 0-.96a1.13 1.13 0 00-1.472-.512 5.527 5.527 0 00-1.024.64 5.93 5.93 0 00-.896.896c-.256.32-.512.704-.704 1.088-.192.32-.32.768-.384 1.152-.064.192-.064.384-.064.64-.064.192-.064.448-.064.64s.064.448.064.64l.192.64c.128.384.384.832.64 1.152.256.384.576.704.96.96.256.128.448.256.704.32.128.064.192.064.384.128 0 0 .128 0 .192.064h.128c.512.064.96 0 1.344-.064.832-.192 1.536-.576 2.24-1.024.32-.192.576-.448.896-.768.128-.128.256-.32.384-.512l.32-.384c.32-.064.64-.064 1.024-.128.32-.064.704-.064 1.024-.128.32-.064.704-.128 1.024-.256.704-.128 1.344-.32 2.048-.576.32-.128.704-.256 1.024-.448.128 0 .192-.064.256-.128.128-.064.192-.064.32-.192l.128-.064.128-.128.064-.064h.064l.064-.064c0-.064.064-.128.128-.192.384-.384.384-.96.064-1.408zm-10.048 3.52c-.064.064-.128.128-.256.128-.384.32-.896.576-1.344.704-.256.064-.448.064-.64 0h-.192c-.128-.064-.192-.064-.256-.128-.128-.128-.32-.256-.384-.448-.128-.192-.256-.384-.32-.576l-.128-.704c0-.064 0-.192.064-.32 0-.128 0-.256.064-.384 0-.192.128-.448.192-.64.128-.256.256-.448.384-.64.192-.192.32-.384.512-.512.192-.192.448-.32.64-.448.064 0 .128-.064.192-.064a.485.485 0 00-.128.256c-.128.32-.192.576-.192.896-.064.256 0 .512.064.768.064.512.32.96.704 1.408.128.192.384.384.64.512.064 0 .064.064.128.064h.064c.064.064.128.064.192.064v.064zm.896-1.984h-.128l-.064-.064h-.064s-.064-.064-.064-.128a.489.489 0 01-.128-.32c-.064-.128-.064-.192 0-.256v-.064c0-.064.064-.064.064-.064h.128c.064 0 .064.064.128.128.064.128.128.32.128.576 0 .064.064.128.064.256l-.064-.064zm33.276-1.6c-.448-.448-1.216-.384-1.6.128l-.064.064-.128.064-.192.192a2.784 2.784 0 01-.448.384 4.833 4.833 0 01-.896.704c-.32.256-.704.448-1.024.64l-.512.32c-.192.064-.384.128-.512.256a20.028 20.028 0 01-4.544 1.536h-.32l-.256.064-.64.128h-.256c-.128 0-.192 0-.32.064h-.576c-.32 0-.64 0-.96-.064 0-.064-.128-.064-.128-.064-.064-.064-.064-.064-.128-.064l-.064-.064c-.064 0-.064 0-.128-.064l-.064-.064-.064-.064v-.064h-.064c0-.064-.064-.064-.064-.128-.064-.128-.128-.192-.128-.384-.064-.128-.064-.256-.064-.384-.064-.192-.064-.384-.064-.512 0-.704.128-1.536.32-2.304 0-.192.064-.384.128-.576v-.32l.064-.064v-.256c0-.064 0-.192-.064-.256-.064-.192-.064-.32-.32-.576a1.6 1.6 0 00-.896-.256.489.489 0 00-.32.128c-.064 0-.128 0-.192.064 0 0-.064 0-.064.064h-.064l-.064.064c-.064.064-.064.128-.128.128-.064.064-.064.128-.128.192l-.192.256-.576.768c-.512.704-.96 1.344-1.472 1.984a14.244 14.244 0 01-1.664 1.728 4.833 4.833 0 01-.896.704 2.685 2.685 0 01-.896.576 1.97 1.97 0 01-.832.192h-.384c-.192 0-.32-.064-.448-.064a.883.883 0 01-.256-.192c-.128 0-.192-.064-.256-.128-.064-.128-.128-.192-.128-.32-.064-.064-.128-.192-.128-.384-.064-.256-.064-.576-.064-.96 0-.32.064-.704.128-1.024.128-.384.192-.768.32-1.152l.192-.512c0-.064.064-.128.128-.256.384-.512.32-1.216-.192-1.6a1.058 1.058 0 00-1.536.192c-.064 0-.064 0-.064.064h-.064v.064s0 .064-.064.064v.064l-.064.064c0 .064-.064.128-.064.192a.489.489 0 00-.128.32c-.128.192-.192.448-.256.64-.192.448-.32.896-.384 1.344a5.33 5.33 0 00-.192 1.408c-.064.512 0 1.024.064 1.6.064.256.128.512.256.832.128.256.32.512.512.768s.448.448.768.64c.256.192.512.32.832.384.256.064.576.128.832.192h.832a3.964 3.964 0 001.536-.512c.512-.192.896-.448 1.28-.704.384-.32.768-.576 1.088-.896.64-.64 1.28-1.28 1.856-1.92 0 0 0-.064.064-.064v.384c0 .256.064.512.128.768.128.256.192.576.384.832.064.128.128.256.256.384l.064.128.064.064.192.192v.064h.064l.128.064.064.128h.064l.064.064c.128.064.256.192.384.192.064.064.128.128.192.128l.256.064c.128.064.256.128.384.128.576.128 1.088.128 1.6.128l.192-.064h.512c.064-.064.192-.064.32-.064l.64-.128h.32l.64-.128c1.728-.384 3.456-.896 5.056-1.664l.576-.32a2.99 2.99 0 00.64-.32c.384-.192.768-.448 1.152-.704.32-.192.704-.448 1.088-.768.192-.128.32-.256.512-.384l.256-.256c.064-.064.128-.064.128-.128l.064-.064h.064l.064-.064c0-.064 0-.064.064-.064.384-.448.32-1.216-.128-1.6zm18.234-.128c-.384-.512-1.088-.512-1.6-.064l-.256.256c-.064.064-.064.064-.128.064-.064.128-.192.192-.32.32l-.192.128-.192.128-.256.128-.192.128c-.576.32-1.216.64-1.792.896-.64.32-1.28.576-1.984.832-.32.064-.64.192-.96.32-.192.064-.32.128-.512.128l-.128.064c-.064 0-.064.064-.128.064l-.192.064c-.128 0-.192 0-.32.064.064-.384.128-.832.064-1.216-.064-.448-.192-.96-.448-1.344a3.428 3.428 0 00-.96-.96 15.682 15.682 0 00-1.088-.512l-1.152-.192a3.1 3.1 0 00-1.088 0c-.384 0-.832.128-1.216.256s-.704.32-1.024.576c-.32.256-.64.512-.832.768-.256.32-.448.64-.64.896l-.32.512c.064-.256.064-.512.128-.768l.192-1.856c.064-.32.064-.64.128-.96v-.448c.064-.128.064-.192.064-.256v-.32s0-.064-.064-.192c-.064-.576-.64-.96-1.28-.896-.576.128-.96.704-.896 1.28v.192c0 .192-.064.32-.064.448 0 .32-.064.576-.064.896-.064.64-.192 1.216-.256 1.856-.128 1.216-.32 2.432-.448 3.648-.384 2.432-.704 4.864-1.024 7.296-.384 2.432-.704 4.864-1.088 7.296l-1.024 7.168c-.128.512-.192 1.024-.32 1.472-.896 4.864-1.856 9.728-2.624 14.592a35.983 35.983 0 00-.576 3.648c-.128.64-.192 1.28-.256 1.92v1.344c0 .064.064.128.064.192 0 0 .064.064.064.128.32.064-.768 0 1.152.64 1.152-.448.64-.512.832-.576.064-.064.064-.128.064-.128.064-.064.064-.128.064-.128 0-.064 0-.128.064-.192 0-.192.064-.32.064-.448l.384-1.856.32-1.856.576-3.648 1.152-7.296.768-5.12.192-.768c.448-2.432.96-4.8 1.408-7.232l1.472-7.232.768-3.584c.192-1.088.448-2.112.64-3.136h.128a.198.198 0 00.128.064c.128 0 .256 0 .384.064h.256c.384 0 .768 0 1.088-.064.64-.064 1.28-.128 1.984-.32.128 0 .32-.064.512-.128.064 0 .128-.064.256-.064.064 0 .064-.064.128-.064h.064l.064-.064c.32-.128.704-.32.96-.512.128-.064.256-.128.384-.256l.448-.064a6.695 6.695 0 001.088-.256l.512-.064c.192-.064.384-.128.576-.128l.32-.128h.128l.128-.064c.192-.064.384-.128.512-.128l1.088-.384c.704-.256 1.408-.512 2.048-.832.704-.256 1.408-.64 2.112-1.024.064 0 .128-.064.192-.128l.256-.128c.128-.064.192-.128.256-.192l.256-.192c.192-.064.384-.192.512-.32l.128-.128.128-.128.256-.192a1.12 1.12 0 000-1.6zm-11.2 3.072c-.064.128-.128.32-.256.512s-.256.32-.384.512l-1.216.192c-1.216.256-2.432.512-3.648.704.064-.064.064-.128.064-.256l.064-.064v-.064l.064-.192c.128-.256.256-.576.384-.768.192-.512.512-1.024.832-1.344a1.99 1.99 0 011.024-.768c.384-.192.832-.192 1.344-.128.512 0 .96.192 1.28.384a.771.771 0 01.32.32c.064.128.128.256.128.448.064.128.064.32 0 .512z" fill="#fff" fill-opacity=".1"/></svg>